<svg width="400" height="275" viewBox="0 0 400 275" fill="none" xmlns="http://www.w3.org/2000/svg">
<g clip-path="url(#clip0_16_20956)">
<mask id="mask0_16_20956" style="mask-type:luminance" maskUnits="userSpaceOnUse" x="-15" y="0" width="415" height="275">
<path d="M399.406 0H-14.5938V275H399.406V0Z" fill="white"/>
</mask>
<g mask="url(#mask0_16_20956)">
<path d="M361.356 214.79H55.0969V170.016H361.356V214.79Z" fill="#E8505B"/>
<path d="M361.356 214.79H55.0969V170.016H361.356V214.79Z" fill="black"/>
<path d="M66.7214 214.067C66.4862 230.316 79.5151 243.678 95.8228 243.912C112.131 244.146 125.543 231.165 125.778 214.916C126.013 198.667 112.983 185.305 96.6751 185.071C80.3674 184.836 66.9565 197.818 66.7214 214.067Z" fill="#253138"/>
<path d="M66.7264 213.991C66.7258 214.017 66.7214 214.042 66.7214 214.067C66.4857 230.316 79.5157 243.679 95.8234 243.912C112.131 244.147 125.543 231.165 125.778 214.916C125.778 214.89 125.775 214.866 125.775 214.84L66.7264 213.991Z" fill="#253138"/>
<path d="M75.5186 214.194C75.3536 225.601 84.5008 234.983 95.9503 235.148C107.399 235.311 116.815 226.198 116.98 214.79C117.145 203.382 107.998 194 96.5482 193.835C85.0986 193.671 75.6837 202.786 75.5186 214.194Z" fill="#F9F9F9"/>
<path d="M96.5482 193.835C85.0986 193.671 75.6837 202.785 75.5186 214.194L116.98 214.789C117.145 203.381 107.998 194 96.5482 193.835Z" fill="#DFDFDF"/>
<path d="M83.6209 214.31C83.5204 221.259 89.0929 226.973 96.0663 227.074C103.041 227.174 108.777 221.622 108.878 214.673C108.979 207.723 103.406 202.009 96.4317 201.909C89.4572 201.809 83.7214 207.36 83.6209 214.31Z" fill="#253138"/>
<path d="M292.545 214.067C292.309 230.316 305.339 243.678 321.647 243.912C337.955 244.146 351.366 231.164 351.6 214.916C351.836 198.667 338.807 185.305 322.498 185.071C306.191 184.836 292.78 197.818 292.545 214.067Z" fill="#253138"/>
<path d="M292.55 213.991C292.55 214.017 292.545 214.042 292.545 214.067C292.309 230.316 305.339 243.679 321.647 243.912C337.955 244.147 351.366 231.164 351.601 214.916C351.602 214.89 351.599 214.866 351.599 214.84L292.55 213.991Z" fill="#253138"/>
<path d="M301.343 214.194C301.177 225.601 310.325 234.983 321.774 235.148C333.224 235.311 342.639 226.198 342.804 214.79C342.969 203.382 333.822 194 322.372 193.835C310.922 193.671 301.508 202.786 301.343 214.194Z" fill="#F9F9F9"/>
<path d="M322.372 193.835C310.922 193.671 301.507 202.785 301.342 214.194L342.804 214.789C342.969 203.381 333.822 194 322.372 193.835Z" fill="#DFDFDF"/>
<path d="M309.445 214.31C309.344 221.259 314.917 226.973 321.891 227.074C328.865 227.174 334.6 221.622 334.701 214.673C334.802 207.723 329.229 202.009 322.255 201.909C315.281 201.809 309.546 207.36 309.445 214.31Z" fill="#253138"/>
<path d="M134.961 144.825C134.961 144.825 91.4731 148.021 75.3552 151.623C63.9956 154.162 42.0912 158.542 42.355 172.273L44.0927 182.116C44.0927 182.116 35.9662 185.813 35.9662 195.248C35.9662 204.683 33.9817 219.32 52.9468 219.905C56.0728 220.001 62.0095 219.905 62.0095 219.905C62.0095 219.905 58.3685 179.659 95.4773 178.481C133.228 177.283 130.72 219.537 130.72 219.537H288.275C288.275 219.537 281.809 178.37 322.448 178.312C363.086 178.254 356.903 219.805 356.903 219.805C356.903 219.805 371.853 221.094 378.808 208.575C385.764 196.056 383.954 187.146 383.954 187.146L383.723 179.234C383.645 176.54 381.484 174.367 378.782 174.263C378.782 174.263 381.497 154.339 377.331 150.89C373.165 147.442 350.325 126.64 350.325 126.64L351.413 125.959C353.235 124.818 352.92 122.082 350.884 121.385C342.214 118.414 325.07 112.536 321.039 111.131C320.432 110.919 319.807 110.788 319.166 110.739C316.761 110.555 309.951 110.125 297.449 109.992C282.219 109.831 221.751 109.992 221.751 109.992C221.751 109.992 200.942 111.697 189.348 116.782C177.16 122.127 134.961 144.825 134.961 144.825Z" fill="#ED2241"/>
<path d="M46.9907 194.159C45.4142 193.839 42.9954 193.808 41.7931 194.874C40.9005 195.665 40.6637 196.943 40.5279 198.127C40.3413 199.751 40.2486 201.416 40.6367 203.004C41.0247 204.593 41.9543 206.113 43.3961 206.894C44.8385 207.674 46.8169 207.546 47.9385 206.352C48.963 205.262 49.0806 203.623 49.0536 202.128C49.0155 200.006 49.1866 198.208 48.7947 196.122C48.7196 195.726 48.5098 195.223 48.2521 194.912C47.8336 194.408 47.514 194.19 46.9907 194.159Z" fill="black"/>
<path d="M44.0933 182.116C48.7097 182.126 53.1875 181.863 57.7939 181.557C58.2918 181.524 58.8317 181.471 59.1982 181.133C59.6382 180.727 59.674 180.057 59.679 179.458C59.7005 176.993 59.578 174.191 57.7012 172.585C56.5547 171.603 54.9809 171.298 53.4762 171.157C49.7706 170.809 45.8856 171.096 42.3561 172.273L44.0933 182.116Z" fill="#F9F9F9"/>
<path d="M139.952 218.277C139.952 218.277 139.935 218.144 139.916 217.884C139.898 217.615 139.873 217.231 139.84 216.73C139.784 215.706 139.702 214.212 139.596 212.291C139.488 210.363 139.36 208.005 139.082 205.279C138.798 202.557 138.377 199.453 137.455 196.132C136.529 192.818 135.109 189.284 133.009 185.816C130.899 182.374 128.128 178.933 124.419 176.269C116.967 170.99 106.906 168.006 96.3798 167.877C85.8272 167.752 75.8024 171.074 68.5403 176.611C64.8739 179.324 61.8401 182.491 59.5013 185.8C57.1464 189.1 55.4247 192.494 54.2109 195.716C52.9838 198.94 52.3413 202.012 51.9769 204.719C51.5806 207.431 51.6391 209.801 51.7059 211.724C51.8566 213.644 52.0272 215.134 52.2469 216.126C52.3368 216.619 52.4053 216.998 52.4539 217.263C52.4986 217.52 52.5146 217.653 52.5146 217.653C52.5146 217.653 52.4798 217.524 52.4252 217.27C52.37 217.005 52.2921 216.628 52.19 216.137C51.9515 215.147 51.7628 213.656 51.5944 211.731C51.5099 209.803 51.4354 207.424 51.8174 204.699C52.1679 201.979 52.8 198.89 54.0204 195.646C55.2277 192.404 56.9471 188.987 59.3075 185.662C61.6502 182.329 64.6961 179.135 68.3818 176.399C75.6798 170.816 85.772 167.463 96.3826 167.591C106.967 167.721 117.071 170.724 124.574 176.056C128.316 178.752 131.1 182.225 133.213 185.694C135.317 189.187 136.733 192.744 137.651 196.078C138.565 199.42 138.972 202.534 139.242 205.263C139.505 207.996 139.617 210.357 139.709 212.285C139.79 214.208 139.854 215.702 139.897 216.727C139.918 217.229 139.934 217.613 139.945 217.882C139.954 218.143 139.952 218.277 139.952 218.277Z" fill="white"/>
<path d="M141.625 218.96C141.625 218.96 141.615 218.85 141.606 218.631C141.598 218.407 141.586 218.083 141.57 217.656C141.543 216.79 141.504 215.515 141.452 213.854C141.357 210.519 141.217 205.638 141.04 199.432C140.869 193.22 140.663 185.683 140.426 177.046C140.367 174.885 140.306 172.657 140.244 170.362C140.168 169.218 140.288 168.047 140.395 166.868C140.478 166.282 140.562 165.691 140.647 165.097C140.768 164.51 140.89 163.919 141.013 163.324C141.569 160.958 142.38 158.586 143.469 156.278C144.562 153.973 145.859 151.694 147.513 149.583L147.524 149.57L147.542 149.558C155.969 144.269 165.134 138.516 174.828 132.432C177.252 130.911 179.709 129.369 182.196 127.809C184.637 126.16 187.273 124.75 189.995 123.47C192.721 122.194 195.556 121.075 198.465 120.1C199.915 119.594 201.4 119.178 202.884 118.737C204.385 118.361 205.882 117.934 207.413 117.629C213.289 116.329 219.203 115.685 225 115.417C230.798 115.147 236.488 115.163 242.023 115.474L242.185 115.482L242.149 115.642C239.537 127.283 237.075 138.259 234.818 148.32L234.813 148.34L234.8 148.36C233.425 150.613 232.33 152.986 231.512 155.378C230.727 157.777 230.222 160.242 230.399 162.643C230.586 165.057 230.653 167.42 230.715 169.711C230.76 172.004 230.803 174.231 230.846 176.39C230.973 185.024 231.005 192.556 231.03 198.761C231.036 204.964 231.042 209.84 231.046 213.173C231.04 214.833 231.035 216.108 231.031 216.973C231.027 217.399 231.025 217.724 231.023 217.947C231.019 218.166 231.013 218.277 231.013 218.277C231.013 218.277 231.005 218.166 231.003 217.947C231 217.724 230.997 217.399 230.992 216.973C230.987 216.108 230.978 214.833 230.968 213.173C230.948 209.841 230.919 204.964 230.883 198.762C230.838 192.557 230.785 185.025 230.641 176.393C230.594 174.236 230.546 172.009 230.496 169.717C230.43 167.425 230.361 165.071 230.17 162.66C229.988 160.214 230.497 157.723 231.284 155.303C232.107 152.887 233.2 150.507 234.59 148.226L234.573 148.266C236.822 138.203 239.275 127.224 241.878 115.582L242.004 115.75C236.487 115.444 230.798 115.43 225.013 115.701C219.226 115.97 213.331 116.614 207.475 117.909C205.949 118.213 204.458 118.638 202.962 119.013C201.482 119.452 200.001 119.866 198.557 120.37C195.657 121.343 192.832 122.456 190.116 123.727C187.403 125.002 184.78 126.403 182.353 128.042C179.865 129.601 177.406 131.143 174.981 132.662C165.279 138.741 156.108 144.486 147.675 149.769L147.706 149.743C146.074 151.82 144.774 154.093 143.686 156.379C142.601 158.672 141.793 161.027 141.236 163.376C139.994 168.089 140.62 172.739 140.63 177.046C140.845 185.683 141.032 193.219 141.187 199.43C141.334 205.636 141.45 210.517 141.53 213.852C141.565 215.514 141.592 216.789 141.611 217.655C141.617 218.082 141.622 218.407 141.626 218.63C141.628 218.849 141.625 218.96 141.625 218.96Z" fill="#253138"/>
<path d="M241.837 116.402C241.837 116.402 241.924 116.392 242.095 116.384C242.277 116.378 242.528 116.37 242.854 116.36C243.534 116.343 244.518 116.319 245.784 116.289C248.347 116.238 252.048 116.166 256.653 116.075C265.891 115.919 278.752 115.7 293.298 115.452L293.367 115.452L293.41 115.504C295.055 117.511 296.786 119.622 298.544 121.768C303.745 128.122 308.7 134.175 313.207 139.681C313.77 140.369 314.325 141.049 314.874 141.72C315.417 142.404 315.877 143.146 316.245 143.912C316.968 145.453 317.335 147.102 317.342 148.698C317.358 150.296 317.025 151.832 316.453 153.198C315.872 154.544 315.315 155.837 314.782 157.072C312.647 161.995 310.917 165.983 309.717 168.752C309.116 170.119 308.649 171.186 308.326 171.921C308.167 172.274 308.045 172.547 307.958 172.742C307.873 172.927 307.823 173.018 307.823 173.018C307.823 173.018 307.855 172.918 307.931 172.731C308.012 172.533 308.125 172.256 308.272 171.899C308.584 171.158 309.035 170.084 309.614 168.707C310.794 165.931 312.496 161.931 314.596 156.992C315.547 154.506 317.218 151.89 317.104 148.7C317.093 147.138 316.728 145.525 316.017 144.02C315.653 143.27 315.206 142.552 314.67 141.88C314.121 141.21 313.563 140.532 312.999 139.845C308.487 134.344 303.528 128.296 298.321 121.948C296.563 119.803 294.834 117.691 293.189 115.684L293.302 115.736C278.756 115.945 265.894 116.131 256.656 116.264C252.05 116.318 248.349 116.361 245.786 116.391C244.52 116.4 243.535 116.407 242.855 116.412C242.528 116.412 242.277 116.412 242.096 116.412C241.924 116.41 241.837 116.402 241.837 116.402Z" fill="#253138"/>
<path d="M223.338 164.953C223.337 164.938 223.493 164.941 223.778 164.889C224.06 164.841 224.481 164.727 224.938 164.429C225.389 164.134 225.875 163.628 226.118 162.898C226.244 162.533 226.286 162.131 226.269 161.688C226.259 161.256 226.15 160.802 225.926 160.379C225.487 159.54 224.522 158.836 223.384 158.836C222.218 158.84 220.972 158.843 219.664 158.847C217.039 158.85 214.159 158.855 211.135 158.859C210.411 158.859 209.707 159.138 209.19 159.613C208.671 160.084 208.34 160.739 208.267 161.413C208.198 162.104 208.29 162.782 208.621 163.354C208.939 163.928 209.457 164.361 210.032 164.604C210.614 164.862 211.242 164.826 211.869 164.828C212.49 164.83 213.092 164.833 213.675 164.835C214.839 164.842 215.925 164.848 216.92 164.853C218.881 164.872 220.477 164.887 221.616 164.898C222.149 164.909 222.574 164.918 222.892 164.924C223.185 164.934 223.338 164.943 223.338 164.953C223.338 164.964 223.185 164.974 222.892 164.983C222.574 164.99 222.149 164.998 221.616 165.009C220.477 165.02 218.881 165.036 216.92 165.056C215.925 165.06 214.839 165.066 213.675 165.072C213.092 165.075 212.49 165.077 211.869 165.079C211.555 165.076 211.251 165.093 210.915 165.072C210.584 165.048 210.248 164.98 209.932 164.849C209.301 164.587 208.733 164.116 208.382 163.49C208.017 162.871 207.914 162.101 207.987 161.382C208.065 160.641 208.427 159.921 208.997 159.403C209.564 158.881 210.34 158.571 211.135 158.572C214.159 158.576 217.039 158.58 219.664 158.584C220.974 158.589 222.22 158.594 223.388 158.599C224.619 158.61 225.649 159.381 226.106 160.285C226.339 160.741 226.448 161.227 226.451 161.685C226.463 162.13 226.411 162.574 226.27 162.95C225.998 163.716 225.474 164.232 224.998 164.523C224.514 164.818 224.076 164.915 223.785 164.947C223.492 164.98 223.338 164.953 223.338 164.953Z" fill="#253138"/>
<path d="M304.996 164.953C304.995 164.938 305.15 164.941 305.435 164.889C305.718 164.841 306.139 164.727 306.595 164.429C307.046 164.134 307.533 163.628 307.776 162.898C307.903 162.533 307.945 162.131 307.927 161.688C307.917 161.256 307.807 160.802 307.584 160.379C307.145 159.54 306.18 158.836 305.042 158.836C303.875 158.84 302.631 158.843 301.322 158.847C298.697 158.85 295.816 158.855 292.792 158.859C292.069 158.859 291.365 159.138 290.848 159.613C290.329 160.084 289.999 160.739 289.925 161.413C289.856 162.104 289.948 162.782 290.279 163.354C290.597 163.928 291.115 164.361 291.691 164.604C292.272 164.862 292.899 164.826 293.527 164.828C294.148 164.83 294.75 164.833 295.334 164.835C296.497 164.842 297.583 164.848 298.577 164.853C300.539 164.872 302.135 164.887 303.274 164.898C303.807 164.909 304.232 164.918 304.551 164.924C304.843 164.934 304.996 164.943 304.996 164.953C304.996 164.964 304.843 164.974 304.551 164.983C304.232 164.99 303.807 164.998 303.274 165.009C302.135 165.02 300.539 165.036 298.577 165.056C297.583 165.06 296.497 165.066 295.334 165.072C294.75 165.075 294.148 165.077 293.527 165.079C293.212 165.076 292.909 165.093 292.573 165.072C292.242 165.048 291.906 164.98 291.59 164.849C290.96 164.587 290.391 164.116 290.04 163.49C289.674 162.871 289.572 162.101 289.645 161.382C289.724 160.641 290.085 159.921 290.656 159.403C291.221 158.881 291.998 158.571 292.792 158.572C295.816 158.576 298.697 158.58 301.322 158.584C302.632 158.589 303.878 158.594 305.046 158.599C306.277 158.61 307.307 159.381 307.765 160.285C307.997 160.741 308.107 161.227 308.11 161.685C308.121 162.13 308.069 162.574 307.928 162.95C307.656 163.716 307.133 164.232 306.656 164.523C306.172 164.818 305.735 164.915 305.444 164.947C305.151 164.98 304.996 164.953 304.996 164.953Z" fill="#253138"/>
<path d="M376.605 151.677H360.266C358.027 151.677 355.971 152.913 354.928 154.888C354.074 156.509 354.007 158.43 354.747 160.106L361.155 174.607L377.516 174.447C377.516 174.447 380.995 156.065 376.605 151.677Z" fill="#F9F9F9"/>
<path d="M149.68 149.626L233.988 148.078L288.858 147.075L306.951 136.667C308.416 135.824 308.808 133.892 307.785 132.549L296.521 117.804C295.346 116.266 293.524 115.357 291.584 115.342L230.214 114.844C230.214 114.844 207.104 113.506 188.898 123.664C169.735 134.356 149.68 149.626 149.68 149.626Z" fill="#253138"/>
<path d="M188.319 116.367C188.319 116.367 192.544 118.288 189.794 120.067C187.044 121.846 144.33 148.677 144.33 148.677L134.511 144.249C151.904 134.594 169.472 125.217 188.319 116.367Z" fill="#455A63"/>
<path d="M145.71 149.348C145.71 149.348 145.623 149.375 145.448 149.415C145.261 149.455 145.002 149.511 144.67 149.583C143.972 149.727 142.965 149.934 141.674 150.201C139.068 150.717 135.292 151.443 130.61 152.244C121.247 153.85 108.243 155.722 93.7953 156.966C90.1825 157.279 86.6514 157.536 83.2405 157.759C79.8297 157.982 76.5404 158.189 73.4149 158.474C67.1646 159.017 61.5646 159.924 57.0167 161.273C52.455 162.577 48.9702 164.25 46.6777 165.57C45.5025 166.187 44.6662 166.791 44.0712 167.156C43.7841 167.338 43.5611 167.479 43.3994 167.581C43.247 167.675 43.1653 167.718 43.1653 167.718C43.1653 167.718 43.236 167.659 43.3828 167.556C43.5407 167.449 43.7587 167.3 44.0392 167.108C44.6243 166.727 45.4528 166.107 46.622 165.473C48.9028 164.12 52.3882 162.412 56.9593 161.078C61.5166 159.7 67.1321 158.769 73.3907 158.211C76.5199 157.918 79.8121 157.706 83.2218 157.479C86.6315 157.252 90.1599 156.993 93.7699 156.681C108.209 155.437 121.208 153.599 130.576 152.044C135.261 151.269 139.041 150.574 141.653 150.092C142.948 149.848 143.958 149.658 144.659 149.526C144.993 149.466 145.253 149.42 145.442 149.385C145.618 149.356 145.71 149.348 145.71 149.348Z" fill="#253138"/>
<path d="M383.133 186.964C383.133 187.043 377.514 187.107 370.584 187.107C363.651 187.107 358.033 187.043 358.033 186.964C358.033 186.885 363.651 186.82 370.584 186.82C377.514 186.82 383.133 186.885 383.133 186.964Z" fill="#253138"/>
<path d="M280.335 201.252C280.335 201.331 248.616 201.395 209.497 201.395C170.364 201.395 138.65 201.331 138.65 201.252C138.65 201.172 170.364 201.109 209.497 201.109C248.616 201.109 280.335 201.172 280.335 201.252Z" fill="#253138"/>
<path d="M58.2416 187.437C58.2416 187.516 53.7571 187.58 48.2255 187.58C42.6923 187.58 38.2084 187.516 38.2084 187.437C38.2084 187.358 42.6923 187.294 48.2255 187.294C53.7571 187.294 58.2416 187.358 58.2416 187.437Z" fill="#253138"/>
<path d="M349.876 126.063C349.876 126.063 346.112 130.263 347.591 133.345C349.071 136.427 364.364 147.213 364.364 147.213L375.464 149.289L349.876 126.063Z" fill="#455A63"/>
<path d="M244.335 118.549L241.837 145.407L286.505 144.139L304.509 133.712L292.853 118.549H244.335Z" fill="#455A63"/>
<path d="M160.258 146.782C160.258 146.782 187.204 127.392 197.837 123.537C208.099 119.817 213.448 118.885 223.086 118.612C232.299 118.351 237.913 118.604 237.913 118.604L230.792 145.91L160.258 146.782Z" fill="#455A63"/>
<path d="M156.315 146.871C156.315 145.17 157.236 143.602 158.724 142.769L164.914 139.304C166.679 138.316 168.67 137.797 170.694 137.797C171.954 137.797 173.193 137.998 174.369 138.382C177.014 139.246 178.776 141.749 178.882 144.522C179.029 148.373 175.935 151.577 172.067 151.577H161.037C158.429 151.577 156.315 149.47 156.315 146.871Z" fill="#ED2241"/>
<path d="M156.315 146.871C156.33 146.871 156.333 147.08 156.386 147.468C156.437 147.854 156.578 148.425 156.93 149.079C157.292 149.72 157.9 150.438 158.827 150.94C159.292 151.183 159.831 151.366 160.42 151.44C161.005 151.509 161.653 151.469 162.323 151.476C165.018 151.466 168.217 151.456 171.766 151.444C172.648 151.45 173.539 151.341 174.394 151.016C175.248 150.699 176.052 150.196 176.729 149.537C177.405 148.877 177.96 148.066 178.304 147.153C178.653 146.242 178.79 145.241 178.717 144.244C178.565 142.243 177.489 140.391 175.931 139.319C175.159 138.767 174.269 138.455 173.373 138.245C172.478 138.033 171.578 137.932 170.699 137.929C168.94 137.927 167.277 138.319 165.854 138.964C165.141 139.28 164.491 139.682 163.845 140.03C163.204 140.385 162.589 140.725 162.001 141.051C160.828 141.699 159.764 142.286 158.827 142.803C157.896 143.303 157.288 144.022 156.932 144.666C156.573 145.316 156.442 145.891 156.383 146.276C156.326 146.664 156.331 146.872 156.315 146.871C156.315 146.871 156.287 146.664 156.326 146.268C156.367 145.876 156.481 145.287 156.833 144.613C157.182 143.947 157.796 143.191 158.749 142.663C159.679 142.135 160.735 141.536 161.901 140.875C162.486 140.544 163.098 140.197 163.736 139.837C164.377 139.485 165.025 139.078 165.755 138.747C167.203 138.08 168.9 137.67 170.699 137.665C171.598 137.664 172.519 137.765 173.436 137.979C174.346 138.189 175.285 138.513 176.092 139.089C177.723 140.207 178.845 142.137 179.004 144.221C179.08 145.26 178.935 146.305 178.571 147.254C178.211 148.206 177.631 149.052 176.925 149.738C176.219 150.423 175.379 150.945 174.49 151.272C173.602 151.608 172.658 151.719 171.766 151.709C168.217 151.697 165.018 151.687 162.323 151.678C161.651 151.665 161.014 151.699 160.396 151.621C159.784 151.536 159.227 151.34 158.751 151.081C157.798 150.548 157.187 149.796 156.831 149.131C156.487 148.454 156.362 147.869 156.329 147.475C156.293 147.08 156.315 146.871 156.315 146.871Z" fill="#253138"/>
<path d="M363.932 218.527C363.932 218.527 363.933 218.398 363.947 218.146C363.966 217.885 363.991 217.513 364.023 217.029C364.053 216.538 364.112 215.931 364.145 215.213C364.169 214.493 364.198 213.664 364.23 212.732C364.239 211.799 364.225 210.761 364.214 209.625C364.141 208.492 364.135 207.255 363.981 205.937C363.742 203.3 363.3 200.3 362.383 197.09C361.906 195.494 361.37 193.827 360.625 192.166C359.919 190.488 359.021 188.814 357.96 187.168C355.858 183.857 352.881 180.808 349.331 178.193C345.77 175.585 341.557 173.493 336.952 172.113C332.347 170.706 327.338 170.195 322.238 170.16C317.133 170.147 312.139 170.839 307.552 172.289C305.258 173.01 303.07 173.919 301.016 174.976C298.965 176.042 297.086 177.321 295.342 178.671C291.867 181.398 288.939 184.456 286.599 187.604C285.448 189.19 284.512 190.841 283.694 192.466C282.923 194.115 282.223 195.719 281.684 197.299C279.45 203.601 278.748 209.019 278.498 212.731C278.41 214.596 278.42 216.047 278.467 217.029C278.495 217.513 278.516 217.885 278.532 218.146C278.544 218.398 278.544 218.527 278.544 218.527C278.544 218.527 278.524 218.399 278.502 218.148C278.48 217.887 278.449 217.516 278.408 217.032C278.343 216.049 278.315 214.596 278.386 212.725C278.603 209.002 279.275 203.565 281.492 197.231C282.027 195.643 282.725 194.029 283.494 192.369C284.312 190.732 285.249 189.067 286.407 187.463C288.753 184.291 291.687 181.212 295.178 178.463C296.931 177.102 298.82 175.812 300.888 174.734C302.956 173.666 305.158 172.75 307.467 172.021C312.084 170.558 317.108 169.861 322.238 169.874C327.358 169.909 332.395 170.425 337.033 171.845C341.668 173.237 345.906 175.348 349.487 177.98C351.279 179.294 352.911 180.729 354.369 182.246C355.828 183.761 357.11 185.368 358.161 187.04C359.225 188.701 360.124 190.39 360.829 192.079C361.573 193.752 362.105 195.43 362.579 197.036C363.487 200.263 363.917 203.277 364.141 205.923C364.288 207.246 364.286 208.485 364.351 209.622C364.354 210.759 364.359 211.8 364.342 212.735C364.3 213.667 364.263 214.497 364.23 215.218C364.189 215.937 364.12 216.543 364.081 217.033C364.036 217.516 364.002 217.887 363.977 218.148C363.952 218.399 363.932 218.527 363.932 218.527Z" fill="white"/>
<path d="M229.613 149.626C229.613 149.631 229.57 149.636 229.485 149.641C229.384 149.645 229.261 149.65 229.11 149.657C228.757 149.664 228.276 149.675 227.67 149.688C226.394 149.711 224.592 149.743 222.377 149.783C217.906 149.866 211.731 150.03 204.911 150.215C198.088 150.4 191.91 150.531 187.437 150.563C185.201 150.581 183.392 150.582 182.141 150.567C181.535 150.558 181.054 150.55 180.701 150.545C180.551 150.539 180.428 150.536 180.326 150.532C180.242 150.528 180.199 150.523 180.199 150.518C180.199 150.512 180.242 150.508 180.326 150.503C180.428 150.499 180.551 150.493 180.701 150.487C181.054 150.479 181.535 150.468 182.14 150.456C183.417 150.433 185.219 150.4 187.434 150.361C191.905 150.278 198.08 150.114 204.903 149.929C211.724 149.744 217.9 149.612 222.373 149.58C224.61 149.563 226.419 149.561 227.67 149.576C228.276 149.586 228.757 149.593 229.11 149.598C229.261 149.604 229.384 149.608 229.485 149.612C229.57 149.616 229.613 149.621 229.613 149.626Z" fill="white"/>
<path d="M222.294 157.896C222.294 157.975 220.128 158.039 217.457 158.039C214.786 158.039 212.622 157.975 212.622 157.896C212.622 157.816 214.786 157.753 217.457 157.753C220.128 157.753 222.294 157.816 222.294 157.896Z" fill="white"/>
<path d="M224.068 128.463C224.099 128.536 218.095 131.028 210.661 134.025C203.224 137.024 197.174 139.395 197.144 139.322C197.114 139.249 203.117 136.759 210.553 133.759C217.987 130.761 224.039 128.39 224.068 128.463Z" fill="white"/>
<path d="M211.903 130.342C211.935 130.414 206.218 132.923 199.137 135.945C192.054 138.967 186.288 141.358 186.257 141.286C186.226 141.212 191.941 138.704 199.025 135.682C206.106 132.66 211.872 130.269 211.903 130.342Z" fill="white"/>
<path d="M289.052 127.423C289.081 127.496 283.078 129.987 275.643 132.985C268.207 135.984 262.156 138.355 262.127 138.282C262.097 138.208 268.099 135.719 275.536 132.719C282.97 129.721 289.022 127.35 289.052 127.423Z" fill="white"/>
<path d="M276.887 129.301C276.918 129.374 271.201 131.883 264.12 134.905C257.037 137.927 251.271 140.318 251.24 140.244C251.209 140.172 256.923 137.664 264.007 134.641C271.088 131.619 276.856 129.229 276.887 129.301Z" fill="white"/>
<path d="M290.225 149.621C290.225 149.701 278.285 149.835 263.56 149.923C248.83 150.01 236.892 150.017 236.891 149.938C236.891 149.859 248.828 149.724 263.558 149.636C278.284 149.549 290.224 149.542 290.225 149.621Z" fill="white"/>
<path d="M303.447 157.436C303.447 157.516 300.099 157.61 295.968 157.649C291.836 157.687 288.487 157.654 288.487 157.576C288.486 157.496 291.834 157.401 295.966 157.362C300.096 157.324 303.446 157.357 303.447 157.436Z" fill="white"/>
<path d="M74.8363 153.37C74.8369 153.38 74.7254 153.401 74.5118 153.432C74.2667 153.464 73.957 153.504 73.5756 153.554C73.1687 153.6 72.6719 153.661 72.0979 153.756C71.5238 153.847 70.8664 153.93 70.1488 154.074C68.7069 154.323 67.0051 154.701 65.1371 155.196C63.2747 155.712 61.2483 156.357 59.1684 157.162C57.0928 157.98 55.1658 158.88 53.448 159.764C51.7395 160.667 50.2342 161.542 49.0071 162.336C48.3823 162.716 47.8441 163.101 47.3611 163.423C46.8753 163.742 46.4691 164.034 46.139 164.276C45.8254 164.497 45.5709 164.678 45.3695 164.82C45.1917 164.942 45.0951 165.002 45.0891 164.994C45.083 164.987 45.1674 164.911 45.3341 164.774C45.5273 164.62 45.7713 164.426 46.0722 164.187C46.3923 163.931 46.7903 163.625 47.2683 163.292C47.7442 162.957 48.2757 162.559 48.8956 162.166C50.1134 161.348 51.6148 160.45 53.3243 159.531C55.0438 158.629 56.9769 157.717 59.0629 156.895C61.1534 156.086 63.193 155.444 65.0687 154.941C66.9494 154.458 68.6633 154.099 70.1145 153.875C70.8371 153.743 71.4984 153.674 72.0763 153.597C72.6537 153.518 73.1544 153.473 73.564 153.443C73.9476 153.415 74.2595 153.392 74.5062 153.374C74.7215 153.361 74.8358 153.36 74.8363 153.37Z" fill="white"/>
<path d="M173.408 140.394C173.386 140.409 173.245 140.178 172.877 139.881C172.513 139.588 171.89 139.254 171.053 139.148C170.215 139.037 169.202 139.18 168.11 139.466C167.014 139.738 165.831 140.127 164.635 140.643C162.235 141.672 160.28 143.041 158.98 144.146C157.669 145.245 156.975 146.054 156.934 146.016C156.919 146.002 157.085 145.796 157.4 145.431C157.721 145.073 158.202 144.566 158.847 143.993C160.124 142.839 162.088 141.423 164.52 140.381C165.732 139.857 166.934 139.471 168.048 139.209C169.153 138.934 170.209 138.805 171.081 138.948C171.956 139.085 172.593 139.466 172.949 139.797C173.13 139.963 173.246 140.115 173.318 140.22C173.387 140.329 173.416 140.388 173.408 140.394Z" fill="white"/>
<path d="M351.127 125.869C351.127 125.869 350.308 126.114 348.777 126.108C348.014 126.089 347.081 126 346.021 125.768C344.961 125.539 343.78 125.171 342.508 124.688C341.234 124.208 339.873 123.601 338.406 122.976C337.666 122.679 336.902 122.372 336.114 122.055C335.326 121.742 334.493 121.472 333.651 121.166C330.26 120.004 326.451 118.963 322.401 118.111C314.292 116.414 306.797 115.712 301.376 115.503C300.02 115.43 298.792 115.429 297.714 115.398C296.642 115.398 295.714 115.398 294.948 115.398C294.205 115.415 293.62 115.428 293.2 115.437C293.013 115.438 292.863 115.44 292.744 115.44C292.642 115.44 292.589 115.436 292.589 115.431C292.588 115.426 292.641 115.42 292.743 115.411C292.861 115.403 293.011 115.393 293.197 115.38C293.618 115.358 294.202 115.326 294.945 115.287C295.712 115.273 296.641 115.257 297.715 115.238C298.794 115.253 300.025 115.24 301.384 115.3C306.816 115.458 314.33 116.13 322.46 117.83C326.521 118.686 330.341 119.737 333.738 120.916C334.582 121.227 335.415 121.502 336.206 121.82C336.994 122.142 337.759 122.455 338.5 122.758C339.966 123.394 341.318 124.01 342.582 124.499C343.843 124.992 345.009 125.37 346.056 125.612C347.103 125.857 348.025 125.96 348.78 125.996C349.536 126.016 350.124 125.979 350.519 125.932C350.704 125.909 350.853 125.892 350.971 125.877C351.073 125.867 351.126 125.864 351.127 125.869Z" fill="#253138"/>
<path d="M85.5446 126.625C83.3393 114.591 81.8545 112.743 80.6064 108.602C79.3727 104.511 77.3777 101.77 74.907 100.824C73.2416 100.185 64.9357 97.1987 62.0415 98.1887C58.8212 99.2904 56.0126 100.888 54.0221 102.202C52.0829 103.481 50.6173 105.352 49.8357 107.535L45.3899 119.947L53.1648 127.673L57.0614 119.422L61.2903 129.297L60.6643 139.281L84.9181 145.783C87.1277 142.264 86.796 133.454 85.5446 126.625Z" fill="#FCE00F"/>
<path d="M61.6783 125.635C61.6424 125.655 61.2433 125.013 60.6074 123.971C59.9274 122.866 59.0635 121.463 58.1085 119.91C57.1293 118.373 56.2444 116.983 55.5478 115.888C54.8882 114.86 54.4852 114.221 54.5189 114.198C54.5354 114.187 54.658 114.332 54.8655 114.604C55.0742 114.876 55.3645 115.276 55.7167 115.776C56.4205 116.775 57.3617 118.177 58.3525 119.759C59.3417 121.34 60.1923 122.8 60.7835 123.869C61.0794 124.404 61.3118 124.841 61.4652 125.146C61.6187 125.452 61.6954 125.625 61.6783 125.635Z" fill="#253138"/>
<path d="M78.5999 136.872C78.606 136.891 78.4034 136.966 78.0302 137.086C77.8447 137.149 77.6151 137.218 77.343 137.277C77.0714 137.338 76.7645 137.422 76.4167 137.47C75.7262 137.597 74.891 137.675 73.962 137.691C73.0335 137.692 72.0101 137.621 70.953 137.435C69.8976 137.237 68.9156 136.943 68.0462 136.616C67.1829 136.275 66.4294 135.907 65.8288 135.545C65.5202 135.378 65.2625 135.191 65.0301 135.039C64.7966 134.888 64.6061 134.742 64.4549 134.619C64.1485 134.375 63.9857 134.234 63.9978 134.218C64.0304 134.174 64.7121 134.707 65.9282 135.369C66.5343 135.704 67.2855 136.046 68.14 136.369C69.0006 136.678 69.9677 136.958 71.0049 137.152C72.0443 137.336 73.0479 137.413 73.962 137.427C74.8761 137.426 75.7002 137.37 76.3858 137.27C77.7581 137.079 78.5844 136.82 78.5999 136.872Z" fill="#253138"/>
<path d="M68.8692 118.123C68.8272 118.339 63.0439 117.184 63.0439 117.184L50.747 110.728L49.4918 105.447C49.2958 104.623 48.7869 103.906 48.0715 103.446C47.313 102.959 46.3868 102.802 45.5102 103.012L41.8836 104.492C41.5827 104.614 41.347 104.873 41.2869 105.191C41.2366 105.459 41.3023 105.718 41.7654 105.681C42.6669 105.612 44.5431 105.413 44.5431 105.413L43.6864 108.42C43.6505 108.545 43.6229 108.672 43.6031 108.799C43.544 109.177 43.5528 109.562 43.629 109.935C43.6483 110.03 43.6721 110.124 43.7002 110.217C43.7582 110.41 43.8349 110.599 43.9298 110.78L45.6493 113.77C45.6493 113.77 57.6034 126.006 64.3158 126.801C68.3487 127.279 76.0943 122.336 76.0943 122.336L68.8692 118.123Z" fill="#B78776"/>
<path d="M47.6134 111.94C47.6001 111.922 47.705 111.813 47.9114 111.677C48.114 111.547 48.4397 111.375 48.8421 111.391C49.2545 111.415 49.5597 111.682 49.6668 111.918C49.7783 112.165 49.7038 112.333 49.6878 112.324C49.6569 112.322 49.6756 112.166 49.5547 111.979C49.441 111.795 49.1683 111.588 48.8327 111.57C48.4905 111.555 48.1852 111.688 47.9738 111.787C47.7602 111.89 47.6283 111.962 47.6134 111.94Z" fill="#AA6450"/>
<path d="M49.1606 113.816C49.1353 113.825 49.0817 113.716 48.9636 113.572C48.8471 113.427 48.6539 113.249 48.3945 113.147C48.135 113.045 47.8717 113.043 47.6879 113.069C47.5019 113.094 47.3882 113.137 47.3755 113.113C47.3644 113.094 47.4616 113.007 47.6603 112.946C47.8552 112.883 48.1588 112.861 48.4602 112.98C48.7621 113.099 48.9686 113.322 49.0685 113.5C49.1706 113.681 49.1816 113.81 49.1606 113.816Z" fill="#AA6450"/>
<path d="M71.42 101.804L68.0898 117.529L76.9157 122.814L80.3066 113.15C80.3066 113.15 78.904 101.417 71.42 101.804Z" fill="#FCE00F"/>
<path d="M76.1783 102.081C76.1827 102.09 76.1049 102.138 75.9531 102.222C75.8013 102.305 75.5766 102.427 75.2824 102.574C74.6956 102.873 73.8395 103.289 72.7625 103.767C70.613 104.714 67.5533 105.921 63.9874 106.523C60.4198 107.127 57.0896 106.845 54.8126 106.214C53.6705 105.907 52.7768 105.557 52.1812 105.273C51.8787 105.141 51.6584 105.009 51.5039 104.93C51.3515 104.846 51.2742 104.798 51.2792 104.789C51.2903 104.767 51.6198 104.922 52.2259 105.17C52.8314 105.421 53.7268 105.739 54.8628 106.017C57.1277 106.591 60.4115 106.837 63.9399 106.24C67.4683 105.645 70.5192 104.477 72.6819 103.581C73.7655 103.129 74.6338 102.741 75.2344 102.474C75.8344 102.207 76.1689 102.062 76.1783 102.081Z" fill="#EBEBEB"/>
<path d="M78.5011 103.817C78.5066 103.825 78.4216 103.886 78.256 103.996C78.0611 104.12 77.8188 104.274 77.5229 104.463C77.2055 104.668 76.8109 104.908 76.3334 105.153C75.8581 105.401 75.3282 105.71 74.7072 105.978C74.3986 106.119 74.0762 106.266 73.7412 106.419C73.405 106.571 73.0418 106.698 72.6725 106.845C71.9378 107.152 71.1236 107.399 70.2724 107.676C68.5546 108.176 66.6287 108.606 64.5769 108.858C62.5218 109.09 60.5478 109.12 58.7599 109.033C57.8673 108.962 57.0189 108.911 56.2317 108.784C55.8382 108.726 55.4551 108.687 55.0924 108.618C54.7309 108.547 54.3831 108.479 54.0502 108.413C53.3834 108.297 52.7966 108.121 52.2761 107.989C51.7539 107.862 51.3145 107.721 50.9579 107.596C50.6256 107.481 50.3535 107.387 50.1349 107.312C49.9483 107.243 49.8523 107.203 49.855 107.194C49.8584 107.185 49.961 107.207 50.1537 107.257C50.3756 107.319 50.6521 107.395 50.99 107.489C51.3499 107.598 51.7926 107.722 52.3159 107.834C52.8375 107.95 53.4248 108.113 54.0905 108.215C54.4223 108.274 54.7684 108.336 55.1288 108.4C55.4899 108.463 55.8702 108.496 56.2616 108.549C57.0437 108.665 57.8883 108.706 58.7743 108.77C60.5489 108.842 62.5052 108.804 64.5438 108.574C66.5784 108.324 68.4889 107.906 70.1973 107.423C71.0436 107.155 71.8544 106.919 72.5881 106.624C72.9562 106.482 73.3189 106.361 73.6556 106.216C73.9907 106.07 74.3131 105.929 74.6216 105.794C75.2448 105.54 75.7775 105.245 76.2572 105.011C76.7402 104.781 77.1415 104.556 77.4661 104.367C77.7724 104.197 78.0236 104.059 78.2251 103.947C78.4006 103.854 78.4956 103.809 78.5011 103.817Z" fill="#EBEBEB"/>
<path d="M76.9163 122.814C76.908 122.828 76.6563 122.7 76.1998 122.451C75.7107 122.178 75.0577 121.813 74.2557 121.365C72.5726 120.398 70.2686 119.076 67.6167 117.553L67.5317 117.504L67.5505 117.409C67.7873 116.234 68.0418 114.975 68.304 113.673C68.7053 111.718 69.0873 109.856 69.4361 108.156C69.6205 107.31 69.7662 106.502 69.9346 105.745C70.1096 104.99 70.3326 104.292 70.6428 103.701C71.2511 102.496 72.2232 101.844 72.9259 101.619C73.2819 101.504 73.5739 101.476 73.7693 101.48C73.9647 101.484 74.0658 101.504 74.0647 101.512C74.068 101.548 73.6451 101.472 72.9629 101.724C72.2972 101.973 71.3858 102.623 70.8244 103.792C70.5363 104.368 70.3298 105.051 70.167 105.797C70.0196 106.553 69.8623 107.358 69.6967 108.204C69.355 109.905 68.9802 111.768 68.5872 113.725C68.3211 115.026 68.0633 116.284 67.8232 117.459L67.757 117.315C70.3883 118.872 72.6736 120.225 74.344 121.213C75.1289 121.691 75.7681 122.079 76.2473 122.37C76.6883 122.644 76.9246 122.8 76.9163 122.814Z" fill="#253138"/>
<path d="M79.6189 112.686C79.6547 112.688 79.6614 113.249 79.5747 114.152C79.4891 115.053 79.2943 116.296 78.9416 117.636C78.5866 118.975 78.1428 120.151 77.7713 120.979C77.4004 121.806 77.1178 122.291 77.0857 122.276C77.046 122.257 77.2635 121.743 77.5831 120.902C77.9038 120.061 78.3123 118.887 78.6634 117.563C79.0122 116.238 79.2369 115.016 79.3732 114.127C79.5101 113.238 79.5753 112.682 79.6189 112.686Z" fill="#253138"/>
<path d="M31.7296 200.148L31.6319 208.545C31.6319 208.545 23.0339 211.266 22.8639 212.815L39.1965 213.589L39.8876 200.512L31.7296 200.148Z" fill="#455A63"/>
<path d="M36.7158 208.078C37.0276 208.179 37.2291 208.544 37.1408 208.859C37.0525 209.173 36.6821 209.38 36.3685 209.284C36.0545 209.19 35.7994 208.759 35.9225 208.456C36.0462 208.154 36.4938 207.934 36.7754 208.102" fill="#DFDFDF"/>
<path d="M39.1965 213.589L39.2141 212.268L23.5473 212.02C23.5473 212.02 22.8054 212.301 22.8633 212.815L39.1965 213.589Z" fill="#DFDFDF"/>
<path d="M31.3708 208.449C31.3697 208.529 31.7666 208.583 32.1469 208.858C32.5344 209.122 32.7204 209.475 32.7955 209.447C32.8695 209.436 32.7734 208.955 32.307 208.632C31.8438 208.304 31.357 208.375 31.3708 208.449Z" fill="#253138"/>
<path d="M29.6243 209.074C29.6022 209.15 29.9411 209.301 30.1961 209.651C30.4611 209.992 30.5124 210.358 30.5919 210.359C30.6664 210.374 30.7437 209.912 30.418 209.484C30.0968 209.054 29.6298 208.998 29.6243 209.074Z" fill="#253138"/>
<path d="M28.5539 211.071C28.6257 211.091 28.7554 210.7 28.5716 210.255C28.3905 209.809 28.0229 209.619 27.9859 209.684C27.9373 209.747 28.1686 209.992 28.3138 210.36C28.4683 210.724 28.475 211.059 28.5539 211.071Z" fill="#253138"/>
<path d="M31.6064 206.538C31.6368 206.612 32.0077 206.52 32.4571 206.572C32.9075 206.615 33.2508 206.781 33.2961 206.715C33.3447 206.66 33.0162 206.35 32.4863 206.297C31.9564 206.238 31.5706 206.473 31.6064 206.538Z" fill="#253138"/>
<path d="M31.7124 201.811L31.6931 203.308L39.7236 203.615L39.7981 202.269L31.7124 201.811Z" fill="black"/>
<path d="M31.6572 204.845C31.655 204.878 31.9675 204.942 32.4753 204.879C32.7281 204.847 33.0273 204.78 33.3436 204.658C33.5015 204.596 33.6638 204.521 33.8249 204.432C33.9028 204.387 33.9944 204.343 34.0816 204.252C34.1738 204.173 34.234 203.964 34.1379 203.831C34.0606 203.702 33.9149 203.641 33.7973 203.633C33.677 203.623 33.5782 203.642 33.4882 203.66C33.3044 203.695 33.1311 203.747 32.9716 203.81C32.653 203.937 32.3908 204.103 32.1938 204.267C31.798 204.599 31.655 204.89 31.681 204.906C31.7163 204.934 31.9123 204.695 32.3119 204.424C32.5106 204.289 32.7634 204.152 33.061 204.049C33.21 203.998 33.3695 203.955 33.5374 203.927C33.7129 203.89 33.8597 203.895 33.9006 203.974C33.9149 204.004 33.9166 204.016 33.8779 204.065C33.8387 204.109 33.7664 204.152 33.6897 204.196C33.5412 204.283 33.3916 204.358 33.2459 204.421C32.9544 204.549 32.6773 204.632 32.4411 204.686C31.9669 204.794 31.6578 204.801 31.6572 204.845Z" fill="#253138"/>
<path d="M31.7561 204.964C31.7837 204.977 31.9554 204.7 32.0094 204.186C32.0348 203.932 32.0227 203.622 31.9393 203.289C31.8974 203.123 31.8367 202.953 31.755 202.784C31.6667 202.619 31.5601 202.398 31.2527 202.348C31.0915 202.335 30.9513 202.454 30.9005 202.559C30.8409 202.667 30.826 202.761 30.8022 202.854C30.763 203.043 30.7575 203.229 30.7757 203.403C30.8105 203.752 30.9391 204.047 31.0848 204.262C31.384 204.698 31.7125 204.809 31.7208 204.783C31.7489 204.744 31.4779 204.577 31.2527 204.16C31.1423 203.955 31.0479 203.686 31.0313 203.382C31.0225 203.231 31.0319 203.071 31.0683 202.912C31.102 202.74 31.1743 202.603 31.2383 202.624C31.3194 202.627 31.4514 202.764 31.5121 202.905C31.5888 203.054 31.6484 203.207 31.6932 203.356C31.7815 203.655 31.8129 203.939 31.8129 204.177C31.8129 204.656 31.713 204.95 31.7561 204.964Z" fill="#253138"/>
<path d="M65.0152 139.369C65.0152 139.369 39.5083 128.709 31.6092 128.253C26.6556 127.966 22.9097 131.137 23.5831 136.243C23.9204 138.798 30.9695 168.701 30.9695 168.701L41.7213 163.808L36.5574 143.135L57.5096 153.284L65.0152 139.369Z" fill="#253138"/>
<path d="M33.337 137.901C33.2536 137.972 34.1009 139.057 34.9875 140.493C35.8806 141.926 36.4762 143.167 36.5767 143.125C36.6683 143.09 36.2184 141.76 35.3065 140.297C34.4012 138.831 33.4087 137.835 33.337 137.901Z" fill="#455A63"/>
<path d="M31.2482 139.088C31.1946 139.182 32.483 139.997 33.9922 141.106C35.5058 142.211 36.6699 143.193 36.7439 143.114C36.8129 143.043 35.7487 141.925 34.2146 140.804C32.6845 139.68 31.2951 139.002 31.2482 139.088Z" fill="#455A63"/>
<path d="M84.9186 145.783C84.9186 145.783 81.7087 149.901 78.6495 151.027C74.8054 152.443 46.3813 165.805 46.3813 165.805C46.3813 165.805 41.2261 203.967 41.6335 202.375L29.7374 202.089L31.0313 166.938C31.1869 162.435 34.8064 157.269 38.6958 154.971L65.0157 139.369L84.9186 145.783Z" fill="#253138"/>
<path d="M30.8055 173.37C30.8182 173.371 30.8342 173.205 30.8535 172.889C30.8723 172.534 30.8966 172.076 30.9258 171.506C30.9948 170.309 31.0605 168.567 31.3972 166.453C31.7478 164.358 32.3903 161.826 33.9668 159.485C34.7495 158.319 35.7983 157.26 37.0254 156.337C38.2509 155.412 39.632 154.601 41.0617 153.793C46.7859 150.525 51.7268 147.194 55.3794 144.909C57.1988 143.755 58.6787 142.834 59.7071 142.207C60.194 141.908 60.587 141.667 60.8895 141.481C61.1589 141.313 61.2963 141.219 61.2902 141.207C61.2836 141.196 61.1335 141.268 60.8525 141.415C60.5715 141.564 60.1564 141.783 59.6331 142.082C58.5805 142.672 57.0779 143.559 55.2387 144.685C51.548 146.914 46.5811 150.211 40.8751 153.468C39.4437 154.278 38.0488 155.098 36.8024 156.047C35.5555 156.99 34.4768 158.088 33.6803 159.292C32.0773 161.71 31.4569 164.291 31.135 166.412C30.8287 168.552 30.8049 170.3 30.7807 171.502C30.7801 172.072 30.779 172.532 30.7784 172.887C30.7834 173.204 30.7928 173.37 30.8055 173.37Z" fill="#455A63"/>
<path d="M74.4191 149.805C74.461 149.757 74.1166 149.436 73.691 148.828C73.2637 148.224 72.7929 147.3 72.566 146.197C72.3446 145.091 72.4181 144.058 72.5765 143.335C72.7316 142.611 72.9237 142.182 72.8668 142.155C72.8321 142.135 72.55 142.529 72.3198 143.271C72.0869 144.006 71.9638 145.103 72.1984 146.271C72.4374 147.437 72.9789 148.4 73.4801 148.988C73.9813 149.582 74.3953 149.836 74.4191 149.805Z" fill="#455A63"/>
<path d="M34.1076 202.089C34.1142 202.09 34.1258 202.023 34.144 201.894C34.1628 201.742 34.1865 201.552 34.2158 201.317C34.2732 200.781 34.3527 200.038 34.4537 199.096C34.6474 197.135 34.9223 194.349 35.2607 190.917C35.4258 189.187 35.6063 187.296 35.7995 185.267C35.9971 183.237 36.2002 181.064 36.3603 178.778C36.538 176.494 36.755 174.099 37.1728 171.647C37.6051 169.204 38.2459 166.693 39.3582 164.31C40.4523 161.918 42.0034 159.828 43.6782 158C45.3772 156.184 47.2187 154.626 49.0651 153.271C52.7635 150.558 56.4134 148.578 59.4179 146.83C62.4373 145.103 64.8435 143.629 66.4438 142.518C67.2475 141.969 67.8563 141.522 68.2626 141.209C68.4497 141.062 68.601 140.944 68.7213 140.849C68.8229 140.766 68.8731 140.721 68.8692 140.716C68.8654 140.711 68.8074 140.746 68.6981 140.819C68.5723 140.905 68.4138 141.013 68.2179 141.148C67.7984 141.44 67.1768 141.869 66.3621 142.398C64.7408 143.468 62.322 144.903 59.2871 146.601C56.2671 148.319 52.5957 150.278 48.8592 152.994C46.9951 154.35 45.131 155.917 43.4082 157.751C41.7086 159.599 40.1327 161.718 39.0176 164.152C37.8866 166.577 37.2418 169.121 36.8107 171.586C36.3945 174.057 36.1842 176.464 36.0159 178.752C35.8652 181.042 35.6742 183.211 35.4898 185.242C35.3132 187.272 35.1476 189.164 34.9963 190.894C34.7076 194.329 34.4736 197.119 34.3085 199.081C34.2368 200.027 34.1816 200.772 34.1407 201.309C34.1269 201.547 34.1153 201.737 34.1059 201.89C34.1004 202.021 34.101 202.088 34.1076 202.089Z" fill="#455A63"/>
<path d="M51.8119 124.037L38.9933 113.15L34.7661 114.103C34.7661 114.103 39.2202 123.329 42.4444 126.711C42.4444 126.711 45.6306 130.961 50.8834 129.124C56.1357 127.287 51.8119 124.037 51.8119 124.037Z" fill="#B78776"/>
<path d="M38.0257 101.164H32.5769C31.7527 101.164 31.0175 102.116 31.3134 102.895L36.792 113.528C37.0034 113.94 37.4306 114.199 37.896 114.199L44.5376 114.185C45.2994 114.083 45.5776 113.241 45.2618 112.784L39.9753 102.374C39.611 101.634 38.8548 101.164 38.0257 101.164Z" fill="#455A63"/>
<path d="M37.658 101.804H32.2092C31.5264 101.804 31.0848 102.522 31.3956 103.126L36.7445 113.527C36.9559 113.939 37.382 114.199 37.8479 114.199H44.4145C44.8147 114.199 45.0741 113.779 44.8936 113.424L39.6077 103.014C39.2439 102.274 38.4871 101.804 37.658 101.804Z" fill="#253138"/>
<path d="M37.1949 106.159L33.8802 107.479L33.1697 110.141L34.7667 114.103L40.6256 114.952L38.9089 113.205L39.1302 111.684C39.1302 111.684 40.7642 111.173 40.805 110.924C40.8447 110.674 40.6024 109.838 40.3518 109.799C40.1012 109.759 38.3867 110.394 38.3867 110.394C38.3867 110.394 40.4158 108.794 40.359 108.536C40.3021 108.279 40.0841 107.622 39.6789 107.549C39.2743 107.476 36.0004 109.014 36.0004 109.014L35.4683 110.222L35.0046 108.29C35.0046 108.29 37.9142 107.477 37.1949 106.159Z" fill="#B78776"/>
<path d="M37.6122 112.4C37.5924 112.406 37.5311 112.285 37.5002 112.07C37.4687 111.857 37.4842 111.549 37.6001 111.236C37.7166 110.924 37.9065 110.681 38.0693 110.539C38.2327 110.396 38.358 110.345 38.369 110.362C38.4016 110.402 37.9694 110.711 37.7596 111.296C37.5366 111.876 37.6625 112.391 37.6122 112.4Z" fill="#AA6450"/>
<path d="M36.0368 111.823C36.0169 111.813 36.135 111.502 36.1682 110.958C36.1936 110.689 36.209 110.355 36.3349 109.999C36.3983 109.823 36.4922 109.641 36.6401 109.488C36.7881 109.333 36.984 109.227 37.1822 109.148C37.9749 108.861 38.6886 108.63 39.2113 108.462C39.733 108.296 40.0598 108.205 40.0675 108.227C40.0752 108.249 39.7628 108.381 39.2516 108.575C38.7421 108.772 38.024 109.025 37.2462 109.306C37.058 109.381 36.8869 109.475 36.7605 109.605C36.6324 109.733 36.5452 109.893 36.4828 110.053C36.3586 110.378 36.3288 110.702 36.2885 110.972C36.2239 111.521 36.0594 111.837 36.0368 111.823Z" fill="#AA6450"/>
<path d="M35.2762 111.227C35.2298 111.219 35.2392 110.927 35.2977 110.575C35.3557 110.223 35.4401 109.944 35.487 109.952C35.5334 109.959 35.524 110.251 35.4655 110.603C35.4076 110.955 35.3226 111.234 35.2762 111.227Z" fill="#AA6450"/>
<path d="M35.1867 103.81C35.1867 104.192 35.4975 104.502 35.8806 104.502C36.2642 104.502 36.5755 104.192 36.5755 103.81C36.5755 103.428 36.2642 103.118 35.8806 103.118C35.4975 103.118 35.1867 103.428 35.1867 103.81Z" fill="#F9F9F9"/>
<path d="M61.2376 76.5647C60.3625 74.5572 57.8396 73.4237 55.7395 74.0933C55.2573 74.2477 54.7902 74.485 54.2834 74.5074C53.662 74.5358 53.074 74.2376 52.4567 74.1583C51.129 73.9869 49.7602 75.0021 49.5529 76.3117C48.4977 76.1697 47.3492 76.3922 46.5683 77.109C45.7869 77.8252 45.4906 79.0876 46.0561 79.9817C46.2993 80.3654 46.6724 80.6577 46.8964 81.0519C47.267 81.7021 47.175 82.518 47.4519 83.2123C47.8613 84.2412 49.0276 84.8152 50.1429 84.8661C51.2581 84.9164 52.3432 84.5447 53.3966 84.1785" fill="#253138"/>
<path d="M57.6113 98.4659C57.3994 97.4202 57.2565 96.6869 57.2565 96.6869C57.2565 96.6869 53.7092 96.8995 51.9772 92.6425C51.1153 90.5255 50.3922 86.899 49.8966 83.9123C49.4504 81.2241 51.3513 78.7104 54.0813 78.3855L63.4697 77.2675L63.7719 78.6999L67.4918 96.4807C68.0591 99.1937 66.2899 101.844 63.5484 102.387C60.8178 102.929 58.1593 101.171 57.6113 98.4659Z" fill="#B78776"/>
<path d="M51.4073 86.4031C51.4658 86.7049 51.7727 86.9041 52.0914 86.8495C52.41 86.7954 52.6212 86.5069 52.5622 86.2057C52.5037 85.9039 52.1973 85.7035 51.8786 85.7581C51.56 85.8128 51.3488 86.1013 51.4073 86.4031Z" fill="#253138"/>
<path d="M51.1183 85.6112C51.2064 85.6689 51.5655 85.253 52.1817 85.1154C52.795 84.9686 53.3201 85.1797 53.3692 85.0898C53.3947 85.0491 53.2914 84.9322 53.0618 84.8351C52.8355 84.7373 52.4733 84.6754 52.0899 84.7635C51.7072 84.8527 51.4171 85.0661 51.265 85.2511C51.1086 85.4381 51.0757 85.5861 51.1183 85.6112Z" fill="#253138"/>
<path d="M57.2545 85.0114C57.3136 85.3132 57.62 85.513 57.9387 85.459C58.2573 85.4044 58.4685 85.1164 58.4095 84.8146C58.351 84.5128 58.0445 84.3124 57.7259 84.3665C57.4072 84.4211 57.196 84.7096 57.2545 85.0114Z" fill="#253138"/>
<path d="M57.197 84.3513C57.2851 84.409 57.6447 83.9936 58.2603 83.8555C58.8731 83.7088 59.3977 83.9204 59.4474 83.8305C59.4728 83.7898 59.3701 83.6728 59.1394 83.5759C58.913 83.478 58.5519 83.4156 58.1686 83.5042C57.7858 83.5933 57.4957 83.8062 57.3436 83.9913C57.1878 84.1782 57.1543 84.3257 57.197 84.3513Z" fill="#253138"/>
<path d="M56.0112 89.3789C56.006 89.3436 55.6085 89.3651 54.9712 89.4271C54.8101 89.4465 54.6544 89.4486 54.6032 89.348C54.5401 89.2443 54.5667 89.0618 54.601 88.8635C54.661 88.4531 54.724 88.0239 54.79 87.5732C55.043 85.7399 55.1874 84.2461 55.1127 84.2363C55.038 84.227 54.7726 85.7058 54.5196 87.5391C54.4614 87.9904 54.4051 88.4208 54.3518 88.8323C54.3336 89.023 54.2778 89.2458 54.4121 89.4614C54.4814 89.568 54.6164 89.6264 54.7233 89.6303C54.8311 89.6379 54.9199 89.62 54.9986 89.6071C55.6294 89.4995 56.017 89.4141 56.0112 89.3789Z" fill="#253138"/>
<path d="M57.2552 96.6851C57.2552 96.6851 60.3002 96.1968 62.8618 93.7527C62.8618 93.7527 62.1169 97.116 57.5574 97.7148L57.2552 96.6851Z" fill="#AA6450"/>
<path d="M57.9175 89.3879C57.8158 89.4051 57.9677 90.0671 57.5052 90.6661C57.044 91.2671 56.3145 91.3542 56.3315 91.4478C56.3317 91.4911 56.5198 91.5404 56.822 91.4803C57.119 91.4237 57.5277 91.2321 57.811 90.8653C58.0931 90.4981 58.1533 90.0799 58.1132 89.8032C58.0743 89.5209 57.9624 89.3734 57.9175 89.3879Z" fill="#253138"/>
<path d="M56.4845 81.9987C56.5841 82.1511 57.1803 81.9325 57.9224 81.8554C58.6628 81.7626 59.2939 81.8405 59.3552 81.6697C59.3817 81.589 59.2441 81.4556 58.9712 81.3489C58.7005 81.2414 58.2926 81.1738 57.8479 81.2244C57.4034 81.2755 57.022 81.4337 56.7834 81.5993C56.5431 81.7651 56.4403 81.926 56.4845 81.9987Z" fill="#253138"/>
<path d="M50.9365 83.7966C51.0766 83.9106 51.4672 83.6708 51.9754 83.5488C52.479 83.4084 52.939 83.4282 53.0049 83.261C53.0319 83.1809 52.9321 83.0576 52.7125 82.9692C52.4967 82.8805 52.1606 82.8442 51.8122 82.9337C51.4645 83.0243 51.1897 83.2185 51.0458 83.4007C50.898 83.5838 50.8729 83.74 50.9365 83.7966Z" fill="#253138"/>
<path d="M49.2942 81.9894C49.2942 81.9894 51.8458 82.6544 54.5804 80.5667C56.375 79.1968 58.5986 78.2655 59.1888 78.5631C59.779 78.8601 60.2898 80.871 62.3785 81.0815C62.3785 81.0815 63.0124 84.9831 64.5446 84.542C65.6364 84.2278 64.69 79.9406 64.0557 77.5017C63.8014 76.5241 62.8951 75.8542 61.8766 75.8834L58.9661 75.9657L55.4106 77.2107L51.5963 78.5201L48.7244 79.9325L49.2942 81.9894Z" fill="#253138"/>
<path d="M64.0884 82.9726C64.1444 82.9278 66.4621 81.515 67.0871 84.0857C67.7115 86.6558 64.9788 86.7443 64.9561 86.6713C64.934 86.5988 64.0884 82.9726 64.0884 82.9726Z" fill="#B78776"/>
<path d="M65.5127 85.5084C65.5224 85.4973 65.5655 85.529 65.6507 85.5452C65.7331 85.5616 65.8669 85.5544 65.99 85.4722C66.2396 85.3077 66.3652 84.8223 66.2655 84.3557C66.2149 84.1203 66.1118 83.9092 65.9832 83.7446C65.8582 83.5755 65.7035 83.4735 65.5598 83.482C65.4151 83.4829 65.3367 83.5883 65.3228 83.6681C65.3057 83.7481 65.3344 83.7955 65.3217 83.8029C65.3161 83.811 65.2555 83.7728 65.2505 83.6614C65.249 83.6078 65.2648 83.54 65.314 83.4764C65.3637 83.4112 65.4488 83.364 65.5475 83.3514C65.7508 83.3176 65.9755 83.4576 66.1163 83.6377C66.2691 83.8171 66.391 84.0532 66.4469 84.3179C66.5566 84.8397 66.4071 85.3875 66.058 85.5838C65.8868 85.6741 65.7214 85.6561 65.6283 85.6141C65.5324 85.57 65.5048 85.5149 65.5127 85.5084Z" fill="#AA6450"/>
<path d="M50.1028 75.314C50.1251 75.3016 50.2031 75.4455 50.4038 75.6454C50.6013 75.8455 50.9511 76.0809 51.4407 76.2099C51.9296 76.345 52.5435 76.3505 53.1949 76.1693C53.8493 75.9999 54.5289 75.6737 55.2674 75.36C56.0059 75.0474 56.7658 74.8106 57.4906 74.812C58.2136 74.7949 58.8639 75.081 59.2518 75.4592C59.653 75.8315 59.8306 76.2654 59.8551 76.5643C59.8847 76.8661 59.8193 77.0256 59.8075 77.022C59.7813 77.0194 59.8049 76.8566 59.744 76.5827C59.6888 76.3111 59.499 75.9317 59.1155 75.6097C58.7372 75.2808 58.1635 75.0472 57.4932 75.0745C56.8257 75.0863 56.1057 75.3154 55.38 75.6223C54.6522 75.9309 53.9524 76.2595 53.26 76.4238C52.5729 76.6002 51.8962 76.5748 51.3832 76.4035C50.8641 76.2397 50.5043 75.9562 50.3215 75.7194C50.1343 75.483 50.0898 75.3193 50.1028 75.314Z" fill="#455A63"/>
<path d="M59.1457 77.2111C59.1259 77.2289 59.0024 77.0819 58.7163 76.9123C58.4351 76.7408 57.9617 76.5909 57.368 76.6137C56.7708 76.6251 56.088 76.8414 55.3947 77.2334C54.6953 77.6088 53.9748 78.1453 53.0831 78.5001C51.2761 79.2129 49.4339 78.8524 48.3423 78.3045C47.7831 78.0331 47.3769 77.7334 47.1225 77.5014C46.8691 77.2682 46.7504 77.1198 46.7624 77.1086C46.8012 77.061 47.3195 77.6396 48.4271 78.1217C49.5043 78.6058 51.2669 78.9107 52.9758 78.2357C53.8209 77.9016 54.5433 77.3776 55.2687 77.0027C55.9849 76.6124 56.7334 76.395 57.3646 76.4115C57.9971 76.413 58.4985 76.6082 58.7775 76.8199C59.0619 77.0302 59.1563 77.2043 59.1457 77.2111Z" fill="#455A63"/>
</g>
</g>
<defs>
<clipPath id="clip0_16_20956">
<rect width="414" height="275" fill="white" transform="translate(-14.5938)"/>
</clipPath>
</defs>
</svg>
