<svg width="36" height="17" viewBox="0 0 36 17" fill="none" xmlns="http://www.w3.org/2000/svg">
    <path
        d="M34.9445 13.5998H32.6895C32.5978 15.4937 31.0534 17 29.1616 17C27.2698 17 25.7253 15.4937 25.6337 13.5998H9.65681C9.56515 15.4937 8.02072 17 6.12894 17C4.23715 17 2.69262 15.4937 2.60106 13.5998H0.752754C0.5452 13.5998 0.3568 13.5054 0.220676 13.3533C0.0845528 13.2012 0.000183105 12.9914 0.000183105 12.759C0.000183105 12.5592 0.063797 12.3657 0.180252 12.2136L0.563782 11.7117C-0.292824 9.74589 0.00737762 6.9289 0.293137 5.30721C0.457211 4.37311 0.960777 3.55649 1.687 3.05875C2.55712 2.46189 4.03892 1.64632 6.48141 0.776734C11.3426 -0.953531 19.9361 0.550158 21.6281 1.95682C22.9765 3.07711 25.6441 5.73309 29.0255 6.12645C30.7827 6.33047 32.2873 6.85128 33.3277 7.30496C34.2537 7.70828 34.8732 8.69169 34.9069 9.80096L34.9436 11.0036L35.53 11.4405C35.677 11.5501 35.7945 11.6964 35.8753 11.8653C35.956 12.0337 36 12.2246 36 12.4213C35.9999 13.0722 35.5274 13.5998 34.9445 13.5998ZM3.89757 13.5998C3.98763 14.7668 4.95396 15.6888 6.12889 15.6888C7.30381 15.6888 8.27015 14.7668 8.36015 13.5998C8.36486 13.541 8.36745 13.4813 8.36745 13.4209C8.36745 12.17 7.36333 11.1526 6.12889 11.1526C4.89439 11.1526 3.89032 12.17 3.89032 13.4209C3.89032 13.4813 3.89291 13.541 3.89757 13.5998ZM1.03805 7.85881C0.865383 7.895 0.739349 8.04495 0.729774 8.22332C0.687283 9.01692 0.803478 9.83432 0.881065 10.2712C0.914242 10.4578 1.07454 10.5931 1.26165 10.5931H1.52034C1.74818 10.5931 1.9267 10.3945 1.90537 10.1646L1.74999 8.48488C1.74223 8.40076 1.70781 8.32146 1.65191 8.25878L1.40336 7.97996C1.31144 7.87675 1.17242 7.83064 1.03805 7.85881ZM8.62438 4.21387L8.36419 2.98648C8.25037 2.44957 7.80877 2.04761 7.26975 1.99033L7.04905 1.96684C7.00268 1.98241 6.95547 1.99767 6.91018 2.01378C4.51867 2.86522 3.14417 3.64245 2.4123 4.14448C1.97815 4.44207 1.67018 4.94951 1.56702 5.53693C1.55445 5.60836 1.54229 5.67948 1.53064 5.75034H7.39925C7.66679 5.75034 7.92724 5.66359 8.14261 5.50279C8.53939 5.20661 8.7279 4.70216 8.62438 4.21387ZM13.9789 8.60006H15.2729C15.5159 8.60006 15.7128 8.40044 15.7128 8.15425C15.7128 7.90806 15.5159 7.70844 15.2729 7.70844H13.9789C13.736 7.70844 13.539 7.90806 13.539 8.15425C13.539 8.40044 13.736 8.60006 13.9789 8.60006ZM21.3293 3.41718C21.1308 3.24531 20.9594 3.09683 20.8076 2.97075C20.5822 2.78335 19.6357 2.31945 17.6657 1.90358C16.0265 1.55758 14.2081 1.35298 12.4874 1.31737L13.089 4.81467C13.2409 5.69737 13.9798 6.35323 14.8632 6.38958L23.8478 6.75908C24.3595 6.78011 24.8519 6.58831 25.2168 6.23732C23.5854 5.37004 22.2675 4.22961 21.3293 3.41718ZM29.1616 11.1526C27.9271 11.1526 26.923 12.17 26.923 13.4209C26.923 13.4813 26.9256 13.541 26.9303 13.5998C27.0203 14.7668 27.9867 15.6888 29.1616 15.6888C30.3365 15.6888 31.3028 14.7668 31.3928 13.5998C31.3976 13.541 31.4001 13.4813 31.4001 13.4209C31.4001 12.17 30.396 11.1526 29.1616 11.1526ZM33.5524 8.63504C33.1999 8.63504 32.9141 9.07335 32.9141 9.61409C32.9141 10.1548 33.1999 10.5931 33.5524 10.5931C33.905 10.5931 34.1908 10.1548 34.1908 9.61409C34.1907 9.07335 33.905 8.63504 33.5524 8.63504Z"
        fill="#ED2241" />
</svg>