<svg viewBox="0 0 414 857" fill="none" xmlns="http://www.w3.org/2000/svg">
    <g clip-path="url(#clip0_16_21238)">
        <path opacity="0.2"
            d="M94.8667 357.266C92.3942 360.266 91.4422 364.484 90.3774 368.45C81.805 400.412 60.6808 426.12 36.6239 444.483C26.4362 452.261 14.0333 462.693 16.2621 476.639C17.4623 484.128 22.7275 489.642 26.6393 495.742C34.8462 508.515 37.5082 525.876 33.5965 541.166C29.1478 558.564 16.7133 574.797 20.5619 592.389C22.9351 603.217 30.9931 610.923 38.7399 617.547C50.8255 627.873 63.2961 637.546 76.1517 646.567C84.7692 652.612 93.9372 658.496 103.98 659.263C112.824 659.939 121.486 656.578 129.883 653.262C137.219 650.361 144.74 647.343 150.664 641.531C154.531 637.737 157.612 632.842 161.907 629.738C171.996 622.446 184.954 627.067 196.522 630.189C223.818 637.516 253.032 634.84 279.007 622.636C318.85 603.912 349.219 564.592 388.192 543.495C404.949 534.421 423.177 528.791 438.693 517.105C447.434 510.452 454.946 502.323 460.891 493.084C472.621 474.987 478.965 451.914 477.133 429.328C475.301 406.742 465.037 384.977 448.916 372.227C431.659 358.579 409.862 356.029 390.227 347.836C369.96 339.363 351.922 324.808 331.849 315.735C315.596 308.404 297.908 304.807 280.083 305.206C262.258 305.605 244.749 309.99 228.84 318.04C206.98 329.094 184.832 354.883 160.486 356.842C143.143 358.195 108.411 340.834 94.8667 357.266Z"
            fill="#FFC100" />


        <g clip-path="url(#clip1_16_21238)">


            <g mask="url(#mask0_16_21238)">
                <path
                    d="M89.2219 525.157C103.063 525.157 114.283 515.148 114.283 502.801C114.283 490.454 103.063 480.445 89.2219 480.445C75.3808 480.445 64.1607 490.454 64.1607 502.801C64.1607 515.148 75.3808 525.157 89.2219 525.157Z"
                    fill="#313131" />

                <mask id="mask1_16_21238" style="mask-type:luminance" maskUnits="userSpaceOnUse"
                    x="73" y="406" width="197" height="197">
                    <path d="M73.4181 406.339H269.018V602.339H73.4181V406.339Z" fill="white" />
                </mask>

                <g mask="url(#mask1_16_21238)">
                    <g opacity="0.5">
                        <mask id="mask2_16_21238" style="mask-type:luminance"
                            maskUnits="userSpaceOnUse" x="205" y="504" width="61" height="20">
                            <path d="M265.018 523.816H205.45V504.461H265.018V523.816Z" fill="white" />
                        </mask>
                        <g mask="url(#mask2_16_21238)">
                            <path
                                d="M245.966 520.309C249.285 520.309 251.98 522.445 251.98 525.076C251.98 527.707 249.285 529.843 245.966 529.843C242.647 529.843 239.952 527.707 239.952 525.076C239.952 522.445 242.647 520.309 245.966 520.309Z"
                                fill="#C4C4D8" />
                            <path
                                d="M238.75 516.856C242.571 516.856 245.674 519.523 245.674 522.808C245.674 526.093 242.571 528.761 238.75 528.761C234.929 528.761 231.827 526.093 231.827 522.808C231.827 519.523 234.929 516.856 238.75 516.856Z"
                                fill="#C4C4D8" />
                            <path
                                d="M231.274 514.544C235.597 514.544 239.107 517.743 239.107 521.682C239.107 525.621 235.597 528.819 231.274 528.819C226.952 528.819 223.442 525.621 223.442 521.682C223.442 517.743 226.952 514.544 231.274 514.544Z"
                                fill="#C4C4D8" />
                            <path
                                d="M223.718 514.896C227.986 514.896 231.452 518.037 231.452 521.905C231.452 525.774 227.986 528.915 223.718 528.915C219.449 528.915 215.983 525.774 215.983 521.905C215.983 518.037 219.449 514.896 223.718 514.896Z"
                                fill="#C4C4D8" />
                            <path
                                d="M216.368 518.048C220.046 518.048 223.032 520.564 223.032 523.661C223.032 526.759 220.046 529.274 216.368 529.274C212.691 529.274 209.705 526.759 209.705 523.661C209.705 520.564 212.691 518.048 216.368 518.048Z"
                                fill="#C4C4D8" />
                            <path
                                d="M209.568 522.744C212.654 522.744 215.16 524.633 215.16 526.96C215.16 529.287 212.654 531.176 209.568 531.176C206.482 531.176 203.976 529.287 203.976 526.96C203.976 524.633 206.482 522.744 209.568 522.744Z"
                                fill="#C4C4D8" />
                        </g>
                    </g>
                </g>

                <path
                    d="M199.247 525.158C213.089 525.158 224.309 515.148 224.309 502.802C224.309 490.455 213.089 480.445 199.247 480.445C185.406 480.445 174.186 490.455 174.186 502.802C174.186 515.148 185.406 525.158 199.247 525.158Z"
                    fill="#313131" />
                <path
                    d="M267.402 525.157C281.244 525.157 292.464 515.148 292.464 502.801C292.464 490.454 281.244 480.445 267.402 480.445C253.561 480.445 242.341 490.454 242.341 502.801C242.341 515.148 253.561 525.157 267.402 525.157Z"
                    fill="#313131" />
                <path
                    d="M270.154 515.97C277.244 515.97 282.99 510.211 282.99 503.108C282.99 496.004 277.244 490.245 270.154 490.245C263.065 490.245 257.318 496.004 257.318 503.108C257.318 510.211 263.065 515.97 270.154 515.97Z"
                    fill="#3D3D3D" />
                <path
                    d="M160.738 525.158C174.579 525.158 185.799 515.148 185.799 502.801C185.799 490.455 174.579 480.445 160.738 480.445C146.896 480.445 135.676 490.455 135.676 502.801C135.676 515.148 146.896 525.158 160.738 525.158Z"
                    fill="#313131" />
                <path
                    d="M163.795 515.97C170.884 515.97 176.631 510.212 176.631 503.108C176.631 496.004 170.884 490.245 163.795 490.245C156.706 490.245 150.959 496.004 150.959 503.108C150.959 510.212 156.706 515.97 163.795 515.97Z"
                    fill="#3D3D3D" />
                <path
                    d="M161.17 512.57C165.052 512.57 168.2 508.731 168.2 503.995C168.2 499.259 165.052 495.42 161.17 495.42C157.288 495.42 154.141 499.259 154.141 503.995C154.141 508.731 157.288 512.57 161.17 512.57Z"
                    fill="white" />
                <path
                    d="M268.445 512.57C272.327 512.57 275.475 508.731 275.475 503.995C275.475 499.259 272.327 495.42 268.445 495.42C264.563 495.42 261.416 499.259 261.416 503.995C261.416 508.731 264.563 512.57 268.445 512.57Z"
                    fill="white" />
                <path
                    d="M121.619 447.645H127.307C127.801 447.645 128.246 447.942 128.436 448.399L130.473 453.299C130.733 453.923 130.438 454.64 129.815 454.9C129.666 454.963 129.506 454.995 129.345 454.995H122.434C121.837 454.995 121.326 454.562 121.229 453.971L120.413 449.071C120.302 448.403 120.752 447.773 121.418 447.661C121.485 447.65 121.552 447.645 121.619 447.645Z"
                    fill="#D91533" />
                <path
                    d="M316.452 473.299L317.732 473.302C318.407 473.304 318.954 473.854 318.952 474.53C318.952 474.545 318.952 474.559 318.952 474.575L318.74 480.058C318.715 480.707 318.189 481.223 317.541 481.236L316.435 481.256L316.452 473.299Z"
                    fill="#AB6F6C" />
                <path
                    d="M317.727 473.272L317.361 481.249L316.248 481.247L316.454 473.269L317.727 473.272Z"
                    fill="#D6D5E1" />
                <path
                    d="M185.792 500.086L253.641 500.238L253.629 505.75L185.78 505.598L185.792 500.086Z"
                    fill="#313131" />
                <path
                    d="M103.886 499.903L139.92 499.984L139.908 505.496L103.874 505.415L103.886 499.903Z"
                    fill="#313131" />
                <path
                    d="M40.3836 469.166C40.3939 464.537 44.1995 461.529 51.801 460.142C59.402 458.754 83.0608 456.972 122.778 454.795L153.833 428.392C155.673 426.737 157.792 425.912 160.19 425.917L242.513 426.102C253.621 426.48 264.026 430.643 273.729 438.59C288.284 450.51 285.561 449.654 296.99 455.185C308.419 460.717 316.519 461.032 316.508 465.97C316.497 470.909 317.749 486.138 314.741 491.003C312.737 494.246 305.414 498.218 292.771 502.917C290.279 488.59 283.583 481.414 272.683 481.389C265.037 481.372 254.499 484.171 251.036 493.896C248.92 499.843 243.734 502.807 235.482 502.789L185.802 502.677C184.261 488.352 177.085 481.175 164.276 481.146C148.328 481.11 144.257 498.226 137.892 498.212L42.4206 497.998L40.3836 469.166Z"
                    fill="#ED2241" />
                <path
                    d="M248.967 432.921C248.933 432.781 248.916 432.636 248.917 432.491C248.919 431.476 249.742 430.656 250.754 430.658C262.994 436.214 269.67 440.382 270.784 443.162C271.897 445.942 270.653 447.903 267.054 449.046L255.992 451.803C255.984 451.805 255.976 451.807 255.967 451.809C254.654 452.122 253.336 451.309 253.023 449.993L248.967 432.921Z"
                    fill="#313131" />
                <path
                    d="M200.38 453.606L242.513 453.701C244.2 453.704 245.572 452.336 245.576 450.645C245.576 450.399 245.547 450.154 245.489 449.915L241.169 432.11C240.837 430.74 239.614 429.774 238.206 429.771L221.071 429.732C219.183 429.728 217.381 430.519 216.104 431.911L199.033 450.526C198.348 451.273 198.397 452.435 199.143 453.122C199.48 453.432 199.921 453.605 200.38 453.606Z"
                    fill="#313131" />
                <path
                    d="M134.39 453.454L190.199 453.579C191.067 453.581 191.895 453.213 192.476 452.567L210.287 432.769C210.965 432.015 210.905 430.853 210.153 430.173C209.817 429.871 209.381 429.702 208.929 429.701L160.027 429.591C158.432 429.588 156.888 430.153 155.67 431.184L133.21 450.213C132.437 450.869 132.34 452.028 132.994 452.803C133.341 453.215 133.852 453.453 134.39 453.454Z"
                    fill="#313131" />
                <path
                    d="M314.904 490.948C312.9 494.192 305.576 498.163 292.933 502.862C291.363 493.837 288.125 487.649 283.219 484.3L316.605 484.375C316.319 487.122 315.801 489.497 314.904 490.948ZM251.199 493.842C249.082 499.788 243.897 502.752 235.645 502.734L185.964 502.622C184.993 493.599 181.786 487.411 176.343 484.061L259.823 484.248C256.067 486.183 252.839 489.236 251.199 493.842ZM138.054 498.158L42.5832 497.945L41.574 483.661C43.6557 483.21 43.6603 481.123 43.671 476.286C43.6792 472.586 43.695 465.469 49.5074 465.483L124.561 465.65C134.607 465.673 135.349 469.259 135.333 476.491C135.322 481.312 137.804 483.81 142.779 483.986L154.044 484.011C146.184 488.889 142.742 498.169 138.054 498.158Z"
                    fill="#D91533" />
                <path
                    d="M143.023 492.176C148.339 483.923 156.059 479.807 166.185 479.83C176.31 479.852 183.27 485.496 187.064 496.761"
                    stroke="#ED2241" stroke-width="4.88161" stroke-miterlimit="10"
                    stroke-linecap="round" />
                <path
                    d="M153.998 482.303C157.575 480.644 161.637 479.82 166.183 479.83C167.639 479.833 169.03 479.953 170.355 480.188"
                    stroke="white" stroke-width="4.88161" stroke-miterlimit="10"
                    stroke-linecap="round" />
                <path
                    d="M249.38 492.414C254.696 484.161 262.417 480.045 272.542 480.068C282.667 480.09 289.627 485.734 293.421 496.999"
                    stroke="#ED2241" stroke-width="4.88161" stroke-miterlimit="10"
                    stroke-linecap="round" />
                <path
                    d="M191.934 486.687L191.998 457.788C192.001 456.589 192.443 455.433 193.24 454.538L215.878 429.103M250.079 486.817L250.146 456.615C250.147 456.244 250.106 455.874 250.024 455.513L244.019 429.166"
                    stroke="#D91533" stroke-width="0.697373" stroke-miterlimit="10"
                    stroke-linecap="round" />
                <path
                    d="M239.677 457.331L244.567 457.342C245.58 457.344 246.399 458.169 246.397 459.184L246.393 461.021C246.39 462.036 245.568 462.857 244.555 462.855L239.665 462.844C238.653 462.841 237.833 462.017 237.835 461.002L237.839 459.165C237.841 458.15 238.665 457.329 239.677 457.331Z"
                    fill="#D91533" />
                <path d="M240.536 460.166L248.363 460.183" stroke="white" stroke-width="3.48687"
                    stroke-miterlimit="10" stroke-linecap="round" />
                <path
                    d="M158.115 454.699C111.71 455.922 98.0123 457.628 91.35 460.49C86.9081 462.399 84.5903 465.117 84.3942 468.646L76.4534 468.629C76.608 464.525 78.5933 461.806 82.4074 460.47C87.4725 458.698 111.812 454.596 145.493 454.671C162.456 454.709 162.758 454.168 158.115 454.699Z"
                    fill="white" />
                <path
                    d="M176.454 454.741C130.049 455.963 116.351 457.669 109.689 460.531C105.247 462.44 102.929 465.158 102.733 468.687L94.7922 468.67C94.9468 464.566 96.932 461.847 100.746 460.511C105.811 458.739 130.151 454.637 163.832 454.712C180.794 454.75 181.097 454.21 176.454 454.741Z"
                    fill="white" />
                <path
                    d="M103.545 465.603C103.065 466.551 102.794 467.58 102.733 468.689L94.7913 468.671C94.8342 467.536 95.0168 466.507 95.3398 465.584L103.545 465.603Z"
                    fill="#ED2241" />
                <path
                    d="M85.2078 465.562C84.7277 466.511 84.4565 467.54 84.3953 468.648L76.454 468.63C76.4968 467.495 76.6794 466.466 77.0024 465.543L85.2078 465.562Z"
                    fill="#ED2241" />
                <path
                    d="M260.404 482.54C263.981 480.881 268.043 480.057 272.59 480.068C274.046 480.071 275.436 480.19 276.761 480.426"
                    stroke="white" stroke-width="4.88161" stroke-miterlimit="10"
                    stroke-linecap="round" />
                <path
                    d="M49.7545 468.973H124.921C126.848 468.973 128.447 470.468 128.579 472.395L129.296 482.807C129.436 484.832 127.91 486.587 125.889 486.726C125.805 486.732 125.722 486.735 125.638 486.735H50.4709C48.543 486.735 46.9452 485.24 46.8126 483.313L46.0962 472.901C45.9568 470.876 47.4813 469.121 49.5015 468.981C49.5858 468.976 49.6702 468.973 49.7545 468.973Z"
                    fill="#FF4763" />
                <path
                    d="M119.48 483.672C121.674 483.672 123.453 481.205 123.453 478.16C123.453 475.115 121.674 472.647 119.48 472.647C117.285 472.647 115.507 475.115 115.507 478.16C115.507 481.205 117.285 483.672 119.48 483.672Z"
                    fill="white" />
                <path
                    d="M57.1325 483.672C59.3269 483.672 61.1056 481.205 61.1056 478.16C61.1056 475.115 59.3269 472.647 57.1325 472.647C54.9381 472.647 53.1594 475.115 53.1594 478.16C53.1594 481.205 54.9381 483.672 57.1325 483.672Z"
                    fill="white" />
                <path
                    d="M69.0513 473.873H69.6625C70.3373 473.873 70.885 474.422 70.885 475.098V480.61C70.885 481.286 70.3373 481.835 69.6625 481.835H69.0513C68.3764 481.835 67.8288 481.286 67.8288 480.61V475.098C67.8288 474.422 68.3764 473.873 69.0513 473.873Z"
                    fill="#313131" />
                <path
                    d="M107.56 473.872H108.171C108.846 473.872 109.394 474.421 109.394 475.097V480.61C109.394 481.286 108.846 481.835 108.171 481.835H107.56C106.885 481.835 106.338 481.286 106.338 480.61V475.097C106.338 474.421 106.885 473.872 107.56 473.872Z"
                    fill="#313131" />
                <path
                    d="M74.552 473.873H102.67C103.344 473.873 103.892 474.422 103.892 475.098V480.61C103.892 481.286 103.344 481.835 102.67 481.835H74.552C73.8772 481.835 73.3295 481.286 73.3295 480.61V475.098C73.3295 474.422 73.8772 473.873 74.552 473.873Z"
                    fill="#313131" />
                <path
                    d="M307.439 486.232H316.827C318.516 486.232 319.884 487.603 319.884 489.295C319.884 489.47 319.869 489.646 319.839 489.819L318.457 497.781C318.202 499.249 316.932 500.32 315.446 500.32H308.475C306.941 500.32 305.643 499.179 305.445 497.653L304.409 489.69C304.19 488.013 305.37 486.477 307.044 486.258C307.174 486.241 307.307 486.232 307.439 486.232Z"
                    fill="#D6D5E1" />
                <path
                    d="M40.7474 488.069H138.496C140.031 488.069 141.327 489.211 141.526 490.736L142.563 498.699C142.781 500.376 141.601 501.913 139.927 502.131C139.796 502.148 139.664 502.157 139.532 502.157H41.7841C40.2487 502.157 38.951 501.016 38.7529 499.49L37.7163 491.528C37.498 489.851 38.6778 488.314 40.352 488.095C40.4828 488.078 40.6154 488.069 40.7474 488.069Z"
                    fill="#D6D5E1" />
                <path d="M65.5654 488.069H67.261L69.2329 502.157H66.9261L65.5654 488.069Z"
                    fill="#C4C4D7" />
                <path d="M116.298 488.069H118.605L120.577 502.157H118.27L116.298 488.069Z"
                    fill="#C4C4D7" />
                <path
                    d="M112.452 485.007H114.094C115.627 485.007 116.923 486.145 117.124 487.669L118.9 501.144C119.12 502.82 117.944 504.359 116.27 504.58C116.137 504.598 116.004 504.607 115.87 504.607H114.227C112.694 504.607 111.398 503.469 111.197 501.945L109.422 488.47C109.201 486.793 110.378 485.254 112.051 485.033C112.184 485.016 112.318 485.007 112.452 485.007Z"
                    fill="#D6D5E1" />
                <path
                    d="M61.1055 485.007H62.7479C64.281 485.007 65.5768 486.145 65.7779 487.669L67.5536 501.144C67.7743 502.82 66.5976 504.36 64.924 504.581C64.7913 504.598 64.6575 504.607 64.5236 504.607H62.8812C61.3476 504.607 60.0517 503.469 59.8512 501.945L58.0755 488.47C57.8549 486.794 59.0315 485.254 60.7045 485.033C60.8378 485.016 60.9716 485.007 61.1055 485.007Z"
                    fill="#D6D5E1" />
                <path
                    d="M198.332 458.057C199.514 458.057 200.471 457.097 200.471 455.913C200.471 454.729 199.514 453.77 198.332 453.77C197.15 453.77 196.192 454.729 196.192 455.913C196.192 457.097 197.15 458.057 198.332 458.057Z"
                    fill="#D91533" />
                <path d="M202.883 453.157L198.638 455.826" stroke="#ED2241" stroke-width="1.39475"
                    stroke-miterlimit="10" stroke-linecap="round" />
                <path
                    d="M202.918 447.645H211.475C212.15 447.645 212.698 448.194 212.698 448.87V453.77C212.698 454.446 212.15 454.995 211.475 454.995H202.918C202.243 454.995 201.695 454.446 201.695 453.77V448.87C201.695 448.194 202.243 447.645 202.918 447.645Z"
                    fill="#D91533" />
                <mask id="mask3_16_21238" style="mask-type:luminance" maskUnits="userSpaceOnUse"
                    x="-62" y="229" width="490" height="491">
                    <path d="M-61.638 229.082H427.362V719.082H-61.638V229.082Z" fill="white" />
                </mask>
                <g mask="url(#mask3_16_21238)">
                    <g opacity="0.6">
                        <mask id="mask4_16_21238" style="mask-type:luminance"
                            maskUnits="userSpaceOnUse" x="-65" y="229" width="490" height="491">
                            <path d="M424.001 230H-64.9994V720H424.001V230Z" fill="white" />
                        </mask>
                        <g mask="url(#mask4_16_21238)">
                            <path
                                d="M369.731 514.008C378.03 514.008 384.767 519.348 384.767 525.925C384.767 532.502 378.03 537.843 369.731 537.843C361.433 537.843 354.695 532.502 354.695 525.925C354.695 519.348 361.433 514.008 369.731 514.008Z"
                                fill="#C4C4D8" />
                            <path
                                d="M351.691 505.375C361.244 505.375 369 512.043 369 520.256C369 528.468 361.244 535.136 351.691 535.136C342.138 535.136 334.382 528.468 334.382 520.256C334.382 512.043 342.138 505.375 351.691 505.375Z"
                                fill="#C4C4D8" />
                            <path
                                d="M332.998 499.596C343.805 499.596 352.579 507.591 352.579 517.439C352.579 527.286 343.805 535.282 332.998 535.282C322.19 535.282 313.416 527.286 313.416 517.439C313.416 507.591 322.19 499.596 332.998 499.596Z"
                                fill="#C4C4D8" />
                            <path
                                d="M314.108 500.474C324.78 500.474 333.445 508.326 333.445 517.998C333.445 527.669 324.78 535.522 314.108 535.522C303.436 535.522 294.771 527.669 294.771 517.998C294.771 508.326 303.436 500.474 314.108 500.474Z"
                                fill="#C4C4D8" />
                            <path
                                d="M295.736 508.356C304.929 508.356 312.394 514.644 312.394 522.388C312.394 530.132 304.929 536.42 295.736 536.42C286.542 536.42 279.077 530.132 279.077 522.388C279.077 514.644 286.542 508.356 295.736 508.356Z"
                                fill="#C4C4D8" />
                            <path
                                d="M278.735 520.094C286.45 520.094 292.714 524.817 292.714 530.634C292.714 536.452 286.45 541.175 278.735 541.175C271.02 541.175 264.755 536.452 264.755 530.634C264.755 524.817 271.02 520.094 278.735 520.094Z"
                                fill="#C4C4D8" />
                        </g>
                    </g>
                </g>
            </g>
        </g>
    </g>
</svg>