<svg width="16" height="10" viewBox="0 0 16 10" fill="none" xmlns="http://www.w3.org/2000/svg">
<path d="M15.1917 3.28906C15.0306 3.28906 14.876 3.34681 14.7621 3.44959C14.6481 3.55238 14.5841 3.69178 14.5841 3.83714V8.22255C14.5841 8.29452 14.5684 8.36579 14.5379 8.43229C14.5073 8.49879 14.4626 8.55921 14.4062 8.6101C14.3497 8.66099 14.2828 8.70136 14.209 8.72891C14.1353 8.75645 14.0563 8.77063 13.9765 8.77063H1.82282C1.74303 8.77063 1.66402 8.75645 1.5903 8.72891C1.51658 8.70136 1.4496 8.66099 1.39318 8.6101C1.33676 8.55921 1.292 8.49879 1.26147 8.43229C1.23093 8.36579 1.21522 8.29452 1.21522 8.22255V3.83714C1.21522 3.76517 1.1995 3.6939 1.16897 3.6274C1.13843 3.56091 1.09368 3.50049 1.03726 3.44959C0.980835 3.3987 0.913853 3.35833 0.840136 3.33078C0.766418 3.30324 0.687409 3.28906 0.607617 3.28906C0.527826 3.28906 0.448816 3.30324 0.375098 3.33078C0.301381 3.35833 0.234399 3.3987 0.177979 3.44959C0.121557 3.50049 0.0768023 3.56091 0.0462675 3.6274C0.0157328 3.6939 1.71661e-05 3.76517 1.71661e-05 3.83714V8.22255C0.000910759 8.65838 0.193242 9.07613 0.53489 9.38431C0.876538 9.69249 1.33966 9.86598 1.82282 9.86679H13.9765C14.4597 9.86598 14.9228 9.69249 15.2644 9.38431C15.6061 9.07613 15.7984 8.65838 15.7993 8.22255V3.83714C15.7993 3.69178 15.7353 3.55238 15.6214 3.44959C15.5074 3.34681 15.3529 3.28906 15.1917 3.28906Z" fill="#ED2241"/>
<path d="M7.53484 6.46796C7.64003 6.53915 7.76798 6.57763 7.89949 6.57763C8.03099 6.57763 8.15894 6.53915 8.26413 6.46796L15.4413 1.61146C15.5532 1.53536 15.6325 1.42671 15.6657 1.3039C15.699 1.18109 15.6842 1.05168 15.6238 0.937606C15.5336 0.768111 15.4125 0.6135 15.2655 0.480238C14.9234 0.172421 14.4599 -0.000311315 13.9768 4.21219e-07H1.82306C1.33983 0.000497353 0.876601 0.174055 0.535184 0.482525C0.388172 0.615787 0.267048 0.770398 0.176878 0.939893C0.116479 1.05397 0.101657 1.18338 0.134923 1.30619C0.168189 1.42899 0.247498 1.53765 0.359411 1.61375L7.53484 6.46796ZM1.82222 1.09616H13.9768C14.0328 1.08826 14.0898 1.08826 14.1458 1.09616L7.9016 5.34436L1.65489 1.09616C1.71061 1.08834 1.7665 1.08834 1.82222 1.09616Z" fill="#ED2241"/>
</svg>
