<svg width="38" height="35" viewBox="0 0 38 35" fill="none" xmlns="http://www.w3.org/2000/svg">
    <path
        d="M7.60458 0.09375H29.4679C33.6678 0.09375 37.0725 3.49846 37.0725 7.69838V26.7099C37.0725 30.9099 33.6678 34.3146 29.4679 34.3146H7.60458C3.40466 34.3146 -4.95911e-05 30.9099 -4.95911e-05 26.7099V7.69838C-4.95911e-05 3.49846 3.40466 0.09375 7.60458 0.09375Z"
        fill="#F2F5FC" />
    <path
        d="M19.5607 21.2081H17.9323V16.3221H19.5607V21.2081ZM18.747 8.99316C20.3575 8.99316 21.9318 9.47072 23.2708 10.3654C24.6099 11.2602 25.6535 12.5319 26.2698 14.0198C26.8861 15.5076 27.0474 17.1449 26.7332 18.7244C26.419 20.3039 25.6435 21.7548 24.5047 22.8935C23.3659 24.0323 21.9151 24.8078 20.3355 25.122C18.756 25.4362 17.1188 25.2749 15.6309 24.6587C14.1431 24.0424 12.8713 22.9987 11.9766 21.6596C11.0819 20.3206 10.6043 18.7463 10.6043 17.1358C10.6041 16.0664 10.8145 15.0075 11.2236 14.0195C11.6328 13.0314 12.2325 12.1337 12.9887 11.3775C13.7449 10.6214 14.6426 10.0216 15.6306 9.61248C16.6187 9.20336 17.6776 8.99291 18.747 8.99316ZM18.747 23.6501C20.0354 23.6501 21.2949 23.2681 22.3661 22.5523C23.4374 21.8365 24.2724 20.8191 24.7654 19.6287C25.2585 18.4384 25.3875 17.1286 25.1361 15.8649C24.8848 14.6013 24.2643 13.4405 23.3533 12.5295C22.4423 11.6185 21.2815 10.998 20.0179 10.7467C18.7542 10.4953 17.4444 10.6243 16.2541 11.1174C15.0637 11.6104 14.0463 12.4454 13.3305 13.5167C12.6147 14.5879 12.2327 15.8474 12.2327 17.1358C12.2349 18.8628 12.922 20.5185 14.1432 21.7396C15.3644 22.9608 17.02 23.6479 18.747 23.6501ZM19.5607 14.6966H17.9323V13.0645H19.5607V14.6966Z"
        fill="#9D9D9D" />
</svg>