<svg width="37" height="35" viewBox="0 0 37 35" fill="none" xmlns="http://www.w3.org/2000/svg">
    <path
        d="M29.1768 0.09375H7.5295C3.37107 0.09375 0 3.49846 0 7.69838V26.7099C0 30.9099 3.37107 34.3146 7.5295 34.3146H29.1768C33.3352 34.3146 36.7063 30.9099 36.7063 26.7099V7.69838C36.7063 3.49846 33.3352 0.09375 29.1768 0.09375Z"
        fill="#F2F5FC" />
    <path
        d="M18.7713 6.89747C16.7629 6.89917 14.8001 7.50221 13.131 8.63036C11.462 9.75852 10.1615 11.3611 9.39409 13.2356C8.62668 15.1101 8.42676 17.1723 8.8196 19.1616C9.21244 21.1508 10.1804 22.9778 11.6011 24.4115C13.0219 25.8452 14.8316 26.8213 16.8015 27.2164C18.7714 27.6115 20.8131 27.4078 22.6684 26.6312C24.5237 25.8546 26.1094 24.5398 27.2251 22.8531C28.3407 21.1665 28.9361 19.1836 28.9361 17.1552C28.9371 15.8071 28.6748 14.4721 28.1642 13.2266C27.6536 11.981 26.9048 10.8494 25.9606 9.89662C25.0164 8.9438 23.8954 8.18844 22.6617 7.6738C21.4281 7.15916 20.106 6.89535 18.7713 6.89747ZM25.8048 13.0525H22.8081C22.488 11.7826 22.0175 10.5564 21.4066 9.40035C23.2601 10.043 24.8216 11.3398 25.8039 13.0525H25.8048ZM18.776 8.98875C19.6332 10.2315 20.288 11.6047 20.7158 13.0563H16.8362C17.264 11.6047 17.9189 10.2315 18.776 8.98875ZM10.9152 19.2065C10.5632 17.8621 10.5632 16.4483 10.9152 15.1038H14.343C14.256 15.7841 14.2101 16.4692 14.2056 17.1552C14.2091 17.8413 14.2566 18.5265 14.3477 19.2065H10.9152ZM11.7425 21.2579H14.7374C15.0583 22.529 15.5288 23.7567 16.1388 24.9147C14.2846 24.2704 12.7229 22.9719 11.7406 21.2579H11.7425ZM14.7374 13.0525H11.7425C12.7247 11.3384 14.2865 10.0399 16.1407 9.39559C15.53 10.5536 15.0589 11.7813 14.7374 13.0525ZM18.7741 25.3254C17.9209 24.0803 17.2664 22.7078 16.8343 21.2579H20.7139C20.2824 22.7077 19.6285 24.0802 18.776 25.3254H18.7741ZM21.1506 19.2065H16.3976C16.2945 18.5276 16.2401 17.842 16.2348 17.1552C16.2401 16.4683 16.2945 15.7827 16.3976 15.1038H21.1506C21.2538 15.7827 21.3082 16.4683 21.3134 17.1552C21.3088 17.842 21.255 18.5275 21.1525 19.2065H21.1506ZM21.4095 24.91C22.0195 23.7536 22.49 22.5274 22.8109 21.2579H25.8067C24.8217 22.9685 23.2608 24.2647 21.4085 24.91H21.4095ZM23.1977 19.2065C23.2863 18.5263 23.3338 17.8412 23.3398 17.1552C23.3363 16.469 23.2889 15.7838 23.1977 15.1038H26.6255C26.8005 15.7734 26.891 16.4627 26.8947 17.1552C26.8934 17.8478 26.803 18.5374 26.6255 19.2065H23.1977Z"
        fill="#9D9D9D" />
</svg>
