<svg width="176" height="202" viewBox="0 0 176 202" fill="none" xmlns="http://www.w3.org/2000/svg">
    <path d="M55.4463 34.5502L39.8192 50.7325L23.6361 35.1055L39.264 18.9232L55.4463 34.5502Z"
        fill="#FA4F69" />
    <path d="M32.7318 33.7956L16.8248 49.7026L0.91684 33.7956L16.8248 17.8885L32.7318 33.7956Z"
        fill="#FFC100" />
    <path
        d="M173.184 48.8706L157.281 32.9678V32.9589L102.643 32.9576V64.7807L157.281 64.7819V64.7743L173.184 48.8706Z"
        fill="#FA4F69" />
    <path
        d="M16.715 64.7804V64.789L0.811737 80.6918L16.715 96.5954V96.6035L71.3527 96.6018V64.7792L16.715 64.7804Z"
        fill="#FFC100" />
    <path
        d="M86.0031 0.73037L87.282 133.52C87.282 133.52 87.6204 153.216 95.4966 164.774C101.969 174.273 115.849 184.093 128.632 184.462C140.764 184.812 144.438 182.716 151.259 179.782C156.902 177.355 162.949 171.46 162.949 171.46"
        stroke="#FC4028" stroke-width="34.9559" />
    <path
        d="M86.0031 0.73037L87.282 133.52C87.282 133.52 87.6204 153.216 95.4966 164.774C101.969 174.273 115.849 184.093 128.632 184.462C140.764 184.812 144.438 182.716 151.259 179.782C156.902 177.355 162.949 171.46 162.949 171.46"
        stroke="#4B5DA9" stroke-width="34.9559" />
    <path
        d="M86.0031 0.73037L87.282 133.52C87.282 133.52 87.6204 153.216 95.4966 164.774C101.969 174.273 115.849 184.093 128.632 184.462C140.764 184.812 144.438 182.716 151.259 179.782C156.902 177.355 162.949 171.46 162.949 171.46"
        stroke="#ED2241" stroke-width="34.9559" />
</svg>
    