<svg width="202" height="88" viewBox="0 0 202 88" fill="none" xmlns="http://www.w3.org/2000/svg">
<path d="M46.8811 80.573L46.8811 31.9408C46.8811 25.3978 52.1852 20.0936 58.7282 20.0936H70.3647" stroke="#FCDA3B" stroke-width="12.4531" stroke-linecap="square"/>
<path d="M87.5007 18.8823C87.9088 19.2876 87.9094 19.9475 87.502 20.3535L73.4469 34.3646C72.793 35.0165 71.6773 34.5539 71.6765 33.6306L71.6514 5.63364C71.6506 4.71033 72.7654 4.24576 73.4205 4.89644L87.5007 18.8823Z" fill="#FCDA3B"/>
<path d="M17.7525 13.318H45.2285L42.4275 16.1189C40.2337 18.3128 38.4787 20.905 37.2565 23.7567L36.5439 25.4194L17.7294 25.0885C17.681 25.0877 17.6333 25.0774 17.5888 25.0584C12.679 22.9542 12.399 16.0988 17.1208 13.6012L17.571 13.363C17.6269 13.3334 17.6892 13.318 17.7525 13.318Z" fill="#FCDA3B" stroke="#FCE00F" stroke-width="0.518878"/>
<path d="M63.4277 79.6263L63.4277 60.9974C63.4277 52.4004 70.397 45.4311 78.9941 45.4311H83.3526" stroke="white" stroke-width="12.4531" stroke-linecap="square"/>
<rect x="95.0742" y="52.7967" width="10.3521" height="32.0939" fill="white"/>
<rect x="95.0742" y="39.0389" width="10.352" height="9.89538" fill="white"/>
<rect x="153.073" y="52.7967" width="10.35" height="32.0939" fill="white"/>
<rect x="153.073" y="39.0389" width="10.35" height="9.89538" fill="white"/>
<path d="M201.021 61.4448V84.8906H192.632V83.952C192.632 83.7741 192.46 83.6467 192.29 83.6986L189.78 84.4642C188.853 84.7469 187.889 84.8906 186.92 84.8906H181.975L181.831 84.8735C175.498 84.1182 170.454 79.2182 169.516 72.91C169.443 72.421 169.407 71.9273 169.407 71.4329V60.8122C169.407 60.499 169.435 60.1865 169.492 59.8786C170.611 53.8195 175.48 49.155 181.581 48.2966L182.527 48.1634L188.382 48.1634C194.015 48.7899 198.721 52.736 200.321 58.1733L200.769 59.6961C200.936 60.264 201.021 60.8529 201.021 61.4448Z" fill="white" stroke="white" stroke-width="0.264959"/>
<path d="M125.853 70.5195V69.605C125.853 66.172 128.636 63.389 132.069 63.389H134.378H134.673C135.987 63.389 137.053 62.3234 137.053 61.0089L137.053 53.4755C137.053 52.4872 136.252 51.686 135.263 51.686H134.855H127.152H127.003C125.302 51.686 123.922 53.0654 123.922 54.7671V54.8027V87.258H110.95V52.1569C111.629 46.1299 115.91 41.1239 121.758 39.5169L123.498 39.0389H136.791L138.231 39.3124C144.122 40.4316 148.688 45.1099 149.664 51.0267L149.664 63.389C148.735 70.5012 142.674 75.8211 135.502 75.8211H131.155C128.227 75.8211 125.853 73.4475 125.853 70.5195Z" fill="white" stroke="white" stroke-width="0.256756"/>
<rect x="176.508" y="56.7064" width="15.1091" height="19.6571" rx="6.09406" fill="#ED2241"/>
<path d="M4.07342 17.7062L23.8525 17.7813C24.0886 17.7822 24.2326 17.9734 24.1743 18.2084C24.116 18.4435 23.8774 18.6333 23.6413 18.6324L3.86221 18.5573C3.62618 18.5564 3.48212 18.3652 3.54044 18.1301C3.59877 17.8951 3.83739 17.7053 4.07342 17.7062Z" fill="#ED2241"/>
<path d="M6.46661 19.7018L26.2457 19.7768C26.4818 19.7777 26.6258 19.969 26.5675 20.204C26.5092 20.439 26.2705 20.6288 26.0345 20.6279L6.2554 20.5528C6.01937 20.552 5.87531 20.3607 5.93363 20.1257C5.99196 19.8907 6.23058 19.7009 6.46661 19.7018Z" fill="#ED2241"/>
<path d="M7.3856 15.6137L29.906 15.5492C30.2166 15.5483 30.4138 15.8004 30.3464 16.1122C30.2791 16.424 29.9727 16.6776 29.6621 16.6784L7.14171 16.7429C6.83112 16.7438 6.63393 16.4917 6.70128 16.1799C6.76863 15.8681 7.07501 15.6146 7.3856 15.6137Z" fill="#ED2241"/>
<path d="M25.3283 17.7037L26.1184 17.7019C26.3384 17.7014 26.4688 17.8775 26.4097 18.0952C26.3507 18.3129 26.1244 18.4898 25.9044 18.4903L25.1143 18.4921C24.8943 18.4926 24.7639 18.3165 24.823 18.0988C24.882 17.8811 25.1083 17.7042 25.3283 17.7037Z" fill="#ED2241"/>
<path d="M26.8808 18.157L26.9182 18.0218C26.9672 17.8443 27.1526 17.7001 27.3323 17.6996C27.5119 17.6992 27.6178 17.8428 27.5688 18.0204L27.5314 18.1555C27.4824 18.3331 27.297 18.4773 27.1173 18.4777C26.9377 18.4781 26.8318 18.3345 26.8808 18.157Z" fill="#ED2241"/>
<path d="M25.4278 13.2798L27.1056 13.2612C27.3278 13.2588 27.4787 13.4398 27.4425 13.6656C27.4064 13.8914 27.197 14.0764 26.9749 14.0789L25.297 14.0975C25.0748 14.0999 24.924 13.9189 24.9601 13.6931C24.9962 13.4673 25.2056 13.2823 25.4278 13.2798Z" fill="#ED2241"/>
<path d="M27.9206 13.7284L27.9432 13.5915C27.9733 13.4089 28.1436 13.2593 28.3235 13.2573C28.5033 13.2554 28.6247 13.4019 28.5946 13.5845L28.572 13.7214C28.5419 13.904 28.3716 14.0537 28.1918 14.0556C28.0119 14.0575 27.8905 13.911 27.9206 13.7284Z" fill="#ED2241"/>
<path d="M4.55007 13.21L24.194 13.1733C24.4674 13.1728 24.6602 13.3988 24.6245 13.6782C24.5889 13.9575 24.3383 14.1843 24.0649 14.1848L4.42093 14.2215C4.14751 14.222 3.95477 13.9959 3.99043 13.7166C4.0261 13.4373 4.27665 13.2105 4.55007 13.21Z" fill="#ED2241"/>
<path d="M3.80584 21.5176L23.585 21.5926C23.821 21.5935 23.965 21.7848 23.9067 22.0198C23.8484 22.2548 23.6098 22.4446 23.3738 22.4437L3.59463 22.3686C3.3586 22.3677 3.21454 22.1765 3.27287 21.9415C3.33119 21.7065 3.56981 21.5167 3.80584 21.5176Z" fill="#ED2241"/>
</svg>
