<svg width="390" height="355" viewBox="0 0 390 355" fill="none" xmlns="http://www.w3.org/2000/svg">
<path opacity="0.2" d="M79.6054 52.709C77.133 55.7094 76.181 59.9279 75.1162 63.8938C66.5438 95.8553 45.4195 121.564 21.3626 139.927C11.175 147.705 -1.22793 158.136 1.0009 172.082C2.20103 179.572 7.4663 185.085 11.378 191.185C19.585 203.958 22.2469 221.319 18.3352 236.61C13.8866 254.007 1.45208 270.241 5.30064 287.832C7.67384 298.661 15.7319 306.367 23.4787 312.99C35.5643 323.316 48.0349 332.989 60.8905 342.01C69.508 348.056 78.676 353.939 88.7193 354.706C97.5624 355.383 106.225 352.022 114.621 348.705C121.958 345.804 129.479 342.786 135.403 336.975C139.269 333.18 142.351 328.285 146.646 325.181C156.735 317.89 169.692 322.51 181.261 325.632C208.557 332.959 237.771 330.284 263.745 318.079C303.589 299.355 333.958 260.035 372.931 238.938C389.688 229.865 407.915 224.234 423.431 212.548C432.173 205.895 439.685 197.766 445.629 188.528C457.36 170.431 463.704 147.357 461.872 124.771C460.04 102.185 449.776 80.4205 433.655 67.6701C416.397 54.022 394.601 51.4728 374.966 43.2794C354.699 34.8062 336.661 20.2512 316.588 11.1779C300.335 3.84785 282.647 0.250256 264.822 0.649211C246.997 1.04817 229.487 5.43354 213.579 13.4835C191.719 24.5374 169.571 50.3268 145.225 52.2849C127.882 53.6385 93.1498 36.2771 79.6054 52.709Z" fill="#FFC100"/>
</svg>
