<svg width="17" height="15" viewBox="0 0 17 15" fill="none" xmlns="http://www.w3.org/2000/svg">
<path d="M5.22613 2.69015C6.12886 1.78742 7.35323 1.28027 8.62988 1.28027C9.90654 1.28027 11.1309 1.78742 12.0336 2.69015C12.9364 3.59288 13.4435 4.81725 13.4435 6.0939C13.4435 7.37056 12.9364 8.59492 12.0336 9.49765L10.2399 11.2914C10.1991 11.3322 10.1507 11.3646 10.0974 11.3866C10.0441 11.4087 9.98695 11.4201 9.92926 11.4201C9.87157 11.4201 9.81445 11.4087 9.76115 11.3866C9.70785 11.3646 9.65942 11.3322 9.61863 11.2914C9.57784 11.2506 9.54548 11.2022 9.52341 11.1489C9.50133 11.0956 9.48997 11.0385 9.48997 10.9808C9.48997 10.9231 9.50133 10.866 9.52341 10.8127C9.54548 10.7594 9.57784 10.7109 9.61863 10.6702L11.4124 8.8764C11.9635 8.32593 12.339 7.62434 12.4914 6.86041C12.6437 6.09647 12.566 5.30452 12.2681 4.58475C11.9703 3.86498 11.4656 3.24974 10.8179 2.81687C10.1703 2.38399 9.40885 2.15294 8.62988 2.15294C7.85091 2.15294 7.08944 2.38399 6.44181 2.81687C5.79419 3.24974 5.28951 3.86498 4.99164 4.58475C4.69376 5.30452 4.61607 6.09647 4.7684 6.86041C4.92073 7.62434 5.29622 8.32593 5.84738 8.8764L8.94051 11.9695C8.98151 12.0102 9.01406 12.0586 9.03627 12.1119C9.05848 12.1652 9.06992 12.2224 9.06992 12.2802C9.06992 12.3379 9.05848 12.3951 9.03627 12.4484C9.01406 12.5017 8.98151 12.5501 8.94051 12.5908C8.89984 12.6318 8.85145 12.6643 8.79813 12.6865C8.74482 12.7088 8.68764 12.7202 8.62988 12.7202C8.57213 12.7202 8.51494 12.7088 8.46163 12.6865C8.40832 12.6643 8.35993 12.6318 8.31926 12.5908L5.22613 9.49765C4.77901 9.05074 4.42432 8.52011 4.18233 7.93609C3.94034 7.35206 3.81578 6.72608 3.81578 6.0939C3.81578 5.46173 3.94034 4.83574 4.18233 4.25172C4.42432 3.66769 4.77901 3.13706 5.22613 2.69015Z" fill="#ED2241"/>
<path d="M6.44238 6.125C6.44238 5.69235 6.57068 5.26942 6.81104 4.90969C7.05141 4.54996 7.39305 4.26958 7.79276 4.10401C8.19247 3.93845 8.63231 3.89513 9.05664 3.97953C9.48097 4.06394 9.87075 4.27228 10.1767 4.57821C10.4826 4.88413 10.6909 5.27391 10.7753 5.69824C10.8598 6.12257 10.8164 6.56241 10.6509 6.96212C10.4853 7.36183 10.2049 7.70348 9.84519 7.94384C9.48546 8.18421 9.06253 8.3125 8.62988 8.3125C8.04972 8.3125 7.49332 8.08203 7.08309 7.6718C6.67285 7.26156 6.44238 6.70516 6.44238 6.125ZM9.94238 6.125C9.94238 5.86541 9.8654 5.61165 9.72119 5.39582C9.57697 5.17998 9.37198 5.01175 9.13215 4.91241C8.89233 4.81307 8.62843 4.78708 8.37383 4.83772C8.11922 4.88836 7.88536 5.01337 7.7018 5.19692C7.51825 5.38048 7.39324 5.61435 7.3426 5.86895C7.29196 6.12355 7.31795 6.38745 7.41729 6.62727C7.51663 6.8671 7.68486 7.07209 7.9007 7.21631C8.11654 7.36053 8.37029 7.4375 8.62988 7.4375C8.97798 7.4375 9.31182 7.29922 9.55796 7.05308C9.8041 6.80694 9.94238 6.4731 9.94238 6.125Z" fill="#ED2241"/>
</svg>
