<svg width="38" height="35" viewBox="0 0 38 35" fill="none" xmlns="http://www.w3.org/2000/svg">
    <path
        d="M30.0996 0.09375H7.76763C3.47768 0.09375 0 3.49846 0 7.69838V26.7099C0 30.9099 3.47768 34.3146 7.76763 34.3146H30.0996C34.3895 34.3146 37.8672 30.9099 37.8672 26.7099V7.69838C37.8672 3.49846 34.3895 0.09375 30.0996 0.09375Z"
        fill="#F2F5FC" />
    <path
        d="M21.0566 22.1761V22.8625C21.0566 23.5907 20.7558 24.289 20.2205 24.8039C19.6851 25.3188 18.959 25.6081 18.2018 25.6081C17.4447 25.6081 16.7186 25.3188 16.1832 24.8039C15.6478 24.289 15.347 23.5907 15.347 22.8625V22.1761M25.8598 20.7788C24.7143 19.4305 23.9056 18.7441 23.9056 15.0268C23.9056 11.6227 22.0981 10.4099 20.6105 9.82091C20.4129 9.74283 20.2269 9.56351 20.1667 9.36832C19.9058 8.51418 19.1742 7.76172 18.2018 7.76172C17.2294 7.76172 16.4974 8.51461 16.2392 9.36918C16.1789 9.56652 15.9929 9.74283 15.7953 9.82091C14.3059 10.4108 12.5003 11.6193 12.5003 15.0268C12.4981 18.7441 11.6894 19.4305 10.5439 20.7788C10.0693 21.3374 10.485 22.1761 11.3151 22.1761H25.093C25.9186 22.1761 26.3317 21.3348 25.8598 20.7788Z"
        stroke="#9D9D9D" stroke-width="1.80223" stroke-linecap="round" stroke-linejoin="round" />
</svg>