<svg width="10" height="14" viewBox="0 0 10 14" fill="none" xmlns="http://www.w3.org/2000/svg">
<path d="M2.14299 0H7.85701C8.42522 0.000427559 8.97002 0.201716 9.3718 0.559675C9.77359 0.917634 9.99952 1.40301 10 1.90924V12.0908C9.99952 12.597 9.77359 13.0824 9.3718 13.4403C8.97002 13.7983 8.42522 13.9996 7.85701 14H2.14299C1.57478 13.9996 1.02998 13.7983 0.628196 13.4403C0.226412 13.0824 0.000479698 12.597 0 12.0908V1.90924C0.000479698 1.40301 0.226412 0.917634 0.628196 0.559675C1.02998 0.201716 1.57478 0.000427559 2.14299 0ZM3.57195 12.7269H6.42896V12.0908H3.57195V12.7269ZM1.25045 10.8177H8.75045V1.90924H1.25045V10.8177Z" fill="#ED2241"/>
</svg>
