<svg width="13" height="12" viewBox="0 0 13 12" fill="none" xmlns="http://www.w3.org/2000/svg">
    <path
        d="M6.35647 5.9715C5.70178 5.9715 5.0618 5.79639 4.51744 5.46831C3.97309 5.14023 3.54882 4.67392 3.29828 4.12835C3.04775 3.58277 2.98219 2.98244 3.10992 2.40326C3.23764 1.82408 3.5529 1.29207 4.01583 0.874507C4.47877 0.456943 5.06858 0.172578 5.71069 0.0573717C6.3528 -0.0578341 7.01836 0.00129365 7.62321 0.227278C8.22806 0.453262 8.74504 0.835954 9.10876 1.32696C9.47249 1.81796 9.66663 2.39523 9.66663 2.98575C9.66663 3.77762 9.31788 4.53706 8.6971 5.097C8.07633 5.65693 7.23438 5.9715 6.35647 5.9715ZM6.35647 0.852751C5.88877 0.852751 5.43156 0.97785 5.04268 1.21223C4.6538 1.4466 4.3507 1.77973 4.17172 2.16949C3.99274 2.55924 3.94591 2.98812 4.03715 3.40188C4.1284 3.81564 4.35362 4.1957 4.68434 4.49401C5.01505 4.79232 5.43641 4.99546 5.89513 5.07777C6.35385 5.16007 6.82932 5.11783 7.26142 4.95639C7.69352 4.79495 8.06285 4.52155 8.32269 4.17078C8.58253 3.82001 8.72122 3.40762 8.72122 2.98575C8.72122 2.42004 8.47208 1.87751 8.0286 1.47749C7.58513 1.07748 6.98364 0.852751 6.35647 0.852751Z"
        fill="#DD2541" />
    <path
        d="M5.88418 6.82422H6.82958C8.20918 6.82422 9.53228 7.31855 10.5078 8.19847C11.4833 9.07839 12.0314 10.2718 12.0314 11.5162C12.0314 11.6294 11.9815 11.7379 11.8928 11.818C11.8041 11.898 11.6837 11.943 11.5583 11.943H1.1555C1.03002 11.943 0.909681 11.898 0.820954 11.818C0.732227 11.7379 0.682382 11.6294 0.682382 11.5162C0.682382 10.2718 1.23043 9.07839 2.20595 8.19847C3.18148 7.31855 4.50457 6.82422 5.88418 6.82422ZM11.0569 11.0895C10.9407 10.1513 10.4454 9.2847 9.66558 8.65518C8.88576 8.02566 7.8761 7.67741 6.82958 7.67697H5.88418C4.83765 7.67741 3.828 8.02566 3.04817 8.65518C2.26834 9.2847 1.77303 10.1513 1.65689 11.0895H11.0569Z"
        fill="#DD2541" />
</svg>