<svg width="414" height="490" viewBox="0 0 414 490" fill="none" xmlns="http://www.w3.org/2000/svg">
<g clip-path="url(#clip0_16_21262)">
<mask id="mask0_16_21262" style="mask-type:luminance" maskUnits="userSpaceOnUse" x="-65" y="0" width="490" height="490">
<path d="M424 0H-64.9995V490H424V0Z" fill="white"/>
</mask>
<g mask="url(#mask0_16_21262)">
<path d="M89.2219 295.157C103.063 295.157 114.283 285.148 114.283 272.801C114.283 260.454 103.063 250.445 89.2219 250.445C75.3808 250.445 64.1607 260.454 64.1607 272.801C64.1607 285.148 75.3808 295.157 89.2219 295.157Z" fill="#313131"/>
<mask id="mask1_16_21262" style="mask-type:luminance" maskUnits="userSpaceOnUse" x="73" y="176" width="197" height="197">
<path d="M73.4181 176.339H269.018V372.339H73.4181V176.339Z" fill="white"/>
</mask>
<g mask="url(#mask1_16_21262)">
<g opacity="0.5">
<mask id="mask2_16_21262" style="mask-type:luminance" maskUnits="userSpaceOnUse" x="205" y="274" width="61" height="20">
<path d="M265.018 293.816H205.45V274.461H265.018V293.816Z" fill="white"/>
</mask>
<g mask="url(#mask2_16_21262)">
<path d="M245.966 290.309C249.285 290.309 251.98 292.445 251.98 295.076C251.98 297.707 249.285 299.843 245.966 299.843C242.647 299.843 239.952 297.707 239.952 295.076C239.952 292.445 242.647 290.309 245.966 290.309Z" fill="#C4C4D8"/>
<path d="M238.75 286.856C242.571 286.856 245.674 289.523 245.674 292.808C245.674 296.093 242.571 298.761 238.75 298.761C234.929 298.761 231.827 296.093 231.827 292.808C231.827 289.523 234.929 286.856 238.75 286.856Z" fill="#C4C4D8"/>
<path d="M231.274 284.544C235.597 284.544 239.107 287.743 239.107 291.682C239.107 295.621 235.597 298.819 231.274 298.819C226.952 298.819 223.442 295.621 223.442 291.682C223.442 287.743 226.952 284.544 231.274 284.544Z" fill="#C4C4D8"/>
<path d="M223.718 284.896C227.986 284.896 231.452 288.037 231.452 291.905C231.452 295.774 227.986 298.915 223.718 298.915C219.449 298.915 215.983 295.774 215.983 291.905C215.983 288.037 219.449 284.896 223.718 284.896Z" fill="#C4C4D8"/>
<path d="M216.368 288.048C220.046 288.048 223.032 290.564 223.032 293.661C223.032 296.759 220.046 299.274 216.368 299.274C212.691 299.274 209.705 296.759 209.705 293.661C209.705 290.564 212.691 288.048 216.368 288.048Z" fill="#C4C4D8"/>
<path d="M209.568 292.744C212.654 292.744 215.16 294.633 215.16 296.96C215.16 299.287 212.654 301.176 209.568 301.176C206.482 301.176 203.976 299.287 203.976 296.96C203.976 294.633 206.482 292.744 209.568 292.744Z" fill="#C4C4D8"/>
</g>
</g>
</g>
<path d="M199.247 295.158C213.089 295.158 224.309 285.148 224.309 272.802C224.309 260.455 213.089 250.445 199.247 250.445C185.406 250.445 174.186 260.455 174.186 272.802C174.186 285.148 185.406 295.158 199.247 295.158Z" fill="#313131"/>
<path d="M267.402 295.157C281.244 295.157 292.464 285.148 292.464 272.801C292.464 260.454 281.244 250.445 267.402 250.445C253.561 250.445 242.341 260.454 242.341 272.801C242.341 285.148 253.561 295.157 267.402 295.157Z" fill="#313131"/>
<path d="M270.154 285.97C277.244 285.97 282.99 280.211 282.99 273.108C282.99 266.004 277.244 260.245 270.154 260.245C263.065 260.245 257.318 266.004 257.318 273.108C257.318 280.211 263.065 285.97 270.154 285.97Z" fill="#3D3D3D"/>
<path d="M160.738 295.158C174.579 295.158 185.799 285.148 185.799 272.801C185.799 260.455 174.579 250.445 160.738 250.445C146.896 250.445 135.676 260.455 135.676 272.801C135.676 285.148 146.896 295.158 160.738 295.158Z" fill="#313131"/>
<path d="M163.795 285.97C170.884 285.97 176.631 280.212 176.631 273.108C176.631 266.004 170.884 260.245 163.795 260.245C156.706 260.245 150.959 266.004 150.959 273.108C150.959 280.212 156.706 285.97 163.795 285.97Z" fill="#3D3D3D"/>
<path d="M161.17 282.57C165.052 282.57 168.2 278.731 168.2 273.995C168.2 269.259 165.052 265.42 161.17 265.42C157.288 265.42 154.141 269.259 154.141 273.995C154.141 278.731 157.288 282.57 161.17 282.57Z" fill="white"/>
<path d="M268.445 282.57C272.327 282.57 275.475 278.731 275.475 273.995C275.475 269.259 272.327 265.42 268.445 265.42C264.563 265.42 261.416 269.259 261.416 273.995C261.416 278.731 264.563 282.57 268.445 282.57Z" fill="white"/>
<path d="M121.619 217.645H127.307C127.801 217.645 128.246 217.942 128.436 218.399L130.473 223.299C130.733 223.923 130.438 224.64 129.815 224.9C129.666 224.963 129.506 224.995 129.345 224.995H122.434C121.837 224.995 121.326 224.562 121.229 223.971L120.413 219.071C120.302 218.403 120.752 217.773 121.418 217.661C121.485 217.65 121.552 217.645 121.619 217.645Z" fill="#D91533"/>
<path d="M316.452 243.299L317.732 243.302C318.407 243.304 318.954 243.854 318.952 244.53C318.952 244.545 318.952 244.559 318.952 244.575L318.74 250.058C318.715 250.707 318.189 251.223 317.541 251.236L316.435 251.256L316.452 243.299Z" fill="#AB6F6C"/>
<path d="M317.727 243.272L317.361 251.249L316.248 251.247L316.454 243.269L317.727 243.272Z" fill="#D6D5E1"/>
<path d="M185.792 270.086L253.641 270.238L253.629 275.75L185.78 275.598L185.792 270.086Z" fill="#313131"/>
<path d="M103.886 269.903L139.92 269.984L139.908 275.496L103.874 275.415L103.886 269.903Z" fill="#313131"/>
<path d="M40.3836 239.166C40.3939 234.537 44.1995 231.529 51.801 230.142C59.402 228.754 83.0608 226.972 122.778 224.795L153.833 198.392C155.673 196.737 157.792 195.912 160.19 195.917L242.513 196.102C253.621 196.48 264.026 200.643 273.729 208.59C288.284 220.51 285.561 219.654 296.99 225.185C308.419 230.717 316.519 231.032 316.508 235.97C316.497 240.909 317.749 256.138 314.741 261.003C312.737 264.246 305.414 268.218 292.771 272.917C290.279 258.59 283.583 251.414 272.683 251.389C265.037 251.372 254.499 254.171 251.036 263.896C248.92 269.843 243.734 272.807 235.482 272.789L185.802 272.677C184.261 258.352 177.085 251.175 164.276 251.146C148.328 251.11 144.257 268.226 137.892 268.212L42.4206 267.998L40.3836 239.166Z" fill="#ED2241"/>
<path d="M248.967 202.921C248.933 202.781 248.916 202.636 248.917 202.491C248.919 201.476 249.742 200.656 250.754 200.658C262.994 206.214 269.67 210.382 270.784 213.162C271.897 215.942 270.653 217.903 267.054 219.046L255.992 221.803C255.984 221.805 255.976 221.807 255.967 221.809C254.654 222.122 253.336 221.309 253.023 219.993L248.967 202.921Z" fill="#313131"/>
<path d="M200.38 223.606L242.513 223.701C244.2 223.704 245.572 222.336 245.576 220.645C245.576 220.399 245.547 220.154 245.489 219.915L241.169 202.11C240.837 200.74 239.614 199.774 238.206 199.771L221.071 199.732C219.183 199.728 217.381 200.519 216.104 201.911L199.033 220.526C198.348 221.273 198.397 222.435 199.143 223.122C199.48 223.432 199.921 223.605 200.38 223.606Z" fill="#313131"/>
<path d="M134.39 223.454L190.199 223.579C191.067 223.581 191.895 223.213 192.476 222.567L210.287 202.769C210.965 202.015 210.905 200.853 210.153 200.173C209.817 199.871 209.381 199.702 208.929 199.701L160.027 199.591C158.432 199.588 156.888 200.153 155.67 201.184L133.21 220.213C132.437 220.869 132.34 222.028 132.994 222.803C133.341 223.215 133.852 223.453 134.39 223.454Z" fill="#313131"/>
<path d="M314.904 260.948C312.9 264.192 305.576 268.163 292.933 272.862C291.363 263.837 288.125 257.649 283.219 254.3L316.605 254.375C316.319 257.122 315.801 259.497 314.904 260.948ZM251.199 263.842C249.082 269.788 243.897 272.752 235.645 272.734L185.964 272.622C184.993 263.599 181.786 257.411 176.343 254.061L259.823 254.248C256.067 256.183 252.839 259.236 251.199 263.842ZM138.054 268.158L42.5832 267.945L41.574 253.661C43.6557 253.21 43.6603 251.123 43.671 246.286C43.6792 242.586 43.695 235.469 49.5074 235.483L124.561 235.65C134.607 235.673 135.349 239.259 135.333 246.491C135.322 251.312 137.804 253.81 142.779 253.986L154.044 254.011C146.184 258.889 142.742 268.169 138.054 268.158Z" fill="#D91533"/>
<path d="M143.023 262.176C148.339 253.923 156.059 249.807 166.185 249.83C176.31 249.852 183.27 255.496 187.064 266.761" stroke="#ED2241" stroke-width="4.88161" stroke-miterlimit="10" stroke-linecap="round"/>
<path d="M153.998 252.303C157.575 250.644 161.637 249.82 166.183 249.83C167.639 249.833 169.03 249.953 170.355 250.188" stroke="white" stroke-width="4.88161" stroke-miterlimit="10" stroke-linecap="round"/>
<path d="M249.38 262.414C254.696 254.161 262.417 250.045 272.542 250.068C282.667 250.09 289.627 255.734 293.421 266.999" stroke="#ED2241" stroke-width="4.88161" stroke-miterlimit="10" stroke-linecap="round"/>
<path d="M191.934 256.687L191.998 227.788C192.001 226.589 192.443 225.433 193.24 224.538L215.878 199.103M250.079 256.817L250.146 226.615C250.147 226.244 250.106 225.874 250.024 225.513L244.019 199.166" stroke="#D91533" stroke-width="0.697373" stroke-miterlimit="10" stroke-linecap="round"/>
<path d="M239.677 227.331L244.567 227.342C245.58 227.344 246.399 228.169 246.397 229.184L246.393 231.021C246.39 232.036 245.568 232.857 244.555 232.855L239.665 232.844C238.653 232.841 237.833 232.017 237.835 231.002L237.839 229.165C237.841 228.15 238.665 227.329 239.677 227.331Z" fill="#D91533"/>
<path d="M240.536 230.166L248.363 230.183" stroke="white" stroke-width="3.48687" stroke-miterlimit="10" stroke-linecap="round"/>
<path d="M158.115 224.699C111.71 225.922 98.0123 227.628 91.35 230.49C86.9081 232.399 84.5903 235.117 84.3942 238.646L76.4534 238.629C76.608 234.525 78.5933 231.806 82.4074 230.47C87.4725 228.698 111.812 224.596 145.493 224.671C162.456 224.709 162.758 224.168 158.115 224.699Z" fill="white"/>
<path d="M176.454 224.741C130.049 225.963 116.351 227.669 109.689 230.531C105.247 232.44 102.929 235.158 102.733 238.687L94.7922 238.67C94.9468 234.566 96.932 231.847 100.746 230.511C105.811 228.739 130.151 224.637 163.832 224.712C180.794 224.75 181.097 224.21 176.454 224.741Z" fill="white"/>
<path d="M103.545 235.603C103.065 236.551 102.794 237.58 102.733 238.689L94.7913 238.671C94.8342 237.536 95.0168 236.507 95.3398 235.584L103.545 235.603Z" fill="#ED2241"/>
<path d="M85.2078 235.562C84.7277 236.511 84.4565 237.54 84.3953 238.648L76.454 238.63C76.4968 237.495 76.6794 236.466 77.0024 235.543L85.2078 235.562Z" fill="#ED2241"/>
<path d="M260.404 252.54C263.981 250.881 268.043 250.057 272.59 250.068C274.046 250.071 275.436 250.19 276.761 250.426" stroke="white" stroke-width="4.88161" stroke-miterlimit="10" stroke-linecap="round"/>
<path d="M49.7545 238.973H124.921C126.848 238.973 128.447 240.468 128.579 242.395L129.296 252.807C129.436 254.832 127.91 256.587 125.889 256.726C125.805 256.732 125.722 256.735 125.638 256.735H50.4709C48.543 256.735 46.9452 255.24 46.8126 253.313L46.0962 242.901C45.9568 240.876 47.4813 239.121 49.5015 238.981C49.5858 238.976 49.6702 238.973 49.7545 238.973Z" fill="#FF4763"/>
<path d="M119.48 253.672C121.674 253.672 123.453 251.205 123.453 248.16C123.453 245.115 121.674 242.647 119.48 242.647C117.285 242.647 115.507 245.115 115.507 248.16C115.507 251.205 117.285 253.672 119.48 253.672Z" fill="white"/>
<path d="M57.1325 253.672C59.3269 253.672 61.1056 251.205 61.1056 248.16C61.1056 245.115 59.3269 242.647 57.1325 242.647C54.9381 242.647 53.1594 245.115 53.1594 248.16C53.1594 251.205 54.9381 253.672 57.1325 253.672Z" fill="white"/>
<path d="M69.0513 243.873H69.6625C70.3373 243.873 70.885 244.422 70.885 245.098V250.61C70.885 251.286 70.3373 251.835 69.6625 251.835H69.0513C68.3764 251.835 67.8288 251.286 67.8288 250.61V245.098C67.8288 244.422 68.3764 243.873 69.0513 243.873Z" fill="#313131"/>
<path d="M107.56 243.872H108.171C108.846 243.872 109.394 244.421 109.394 245.097V250.61C109.394 251.286 108.846 251.835 108.171 251.835H107.56C106.885 251.835 106.338 251.286 106.338 250.61V245.097C106.338 244.421 106.885 243.872 107.56 243.872Z" fill="#313131"/>
<path d="M74.552 243.873H102.67C103.344 243.873 103.892 244.422 103.892 245.098V250.61C103.892 251.286 103.344 251.835 102.67 251.835H74.552C73.8772 251.835 73.3295 251.286 73.3295 250.61V245.098C73.3295 244.422 73.8772 243.873 74.552 243.873Z" fill="#313131"/>
<path d="M307.439 256.232H316.827C318.516 256.232 319.884 257.603 319.884 259.295C319.884 259.47 319.869 259.646 319.839 259.819L318.457 267.781C318.202 269.249 316.932 270.32 315.446 270.32H308.475C306.941 270.32 305.643 269.179 305.445 267.653L304.409 259.69C304.19 258.013 305.37 256.477 307.044 256.258C307.174 256.241 307.307 256.232 307.439 256.232Z" fill="#D6D5E1"/>
<path d="M40.7474 258.069H138.496C140.031 258.069 141.327 259.211 141.526 260.736L142.563 268.699C142.781 270.376 141.601 271.913 139.927 272.131C139.796 272.148 139.664 272.157 139.532 272.157H41.7841C40.2487 272.157 38.951 271.016 38.7529 269.49L37.7163 261.528C37.498 259.851 38.6778 258.314 40.352 258.095C40.4828 258.078 40.6154 258.069 40.7474 258.069Z" fill="#D6D5E1"/>
<path d="M65.5654 258.069H67.261L69.2329 272.157H66.9261L65.5654 258.069Z" fill="#C4C4D7"/>
<path d="M116.298 258.069H118.605L120.577 272.157H118.27L116.298 258.069Z" fill="#C4C4D7"/>
<path d="M112.452 255.007H114.094C115.627 255.007 116.923 256.145 117.124 257.669L118.9 271.144C119.12 272.82 117.944 274.359 116.27 274.58C116.137 274.598 116.004 274.607 115.87 274.607H114.227C112.694 274.607 111.398 273.469 111.197 271.945L109.422 258.47C109.201 256.793 110.378 255.254 112.051 255.033C112.184 255.016 112.318 255.007 112.452 255.007Z" fill="#D6D5E1"/>
<path d="M61.1055 255.007H62.7479C64.281 255.007 65.5768 256.145 65.7779 257.669L67.5536 271.144C67.7743 272.82 66.5976 274.36 64.924 274.581C64.7913 274.598 64.6575 274.607 64.5236 274.607H62.8812C61.3476 274.607 60.0517 273.469 59.8512 271.945L58.0755 258.47C57.8549 256.794 59.0315 255.254 60.7045 255.033C60.8378 255.016 60.9716 255.007 61.1055 255.007Z" fill="#D6D5E1"/>
<path d="M198.332 228.057C199.514 228.057 200.471 227.097 200.471 225.913C200.471 224.729 199.514 223.77 198.332 223.77C197.15 223.77 196.192 224.729 196.192 225.913C196.192 227.097 197.15 228.057 198.332 228.057Z" fill="#D91533"/>
<path d="M202.883 223.157L198.638 225.826" stroke="#ED2241" stroke-width="1.39475" stroke-miterlimit="10" stroke-linecap="round"/>
<path d="M202.918 217.645H211.475C212.15 217.645 212.698 218.194 212.698 218.87V223.77C212.698 224.446 212.15 224.995 211.475 224.995H202.918C202.243 224.995 201.695 224.446 201.695 223.77V218.87C201.695 218.194 202.243 217.645 202.918 217.645Z" fill="#D91533"/>
<mask id="mask3_16_21262" style="mask-type:luminance" maskUnits="userSpaceOnUse" x="-62" y="-1" width="490" height="491">
<path d="M-61.638 -0.918388H427.362V489.082H-61.638V-0.918388Z" fill="white"/>
</mask>
<g mask="url(#mask3_16_21262)">
<g opacity="0.6">
<mask id="mask4_16_21262" style="mask-type:luminance" maskUnits="userSpaceOnUse" x="-65" y="-1" width="490" height="491">
<path d="M424.001 -0.000209808H-64.9994V490H424.001V-0.000209808Z" fill="white"/>
</mask>
<g mask="url(#mask4_16_21262)">
<path d="M369.731 284.008C378.03 284.008 384.767 289.348 384.767 295.925C384.767 302.502 378.03 307.843 369.731 307.843C361.433 307.843 354.695 302.502 354.695 295.925C354.695 289.348 361.433 284.008 369.731 284.008Z" fill="#C4C4D8"/>
<path d="M351.691 275.375C361.244 275.375 369 282.043 369 290.256C369 298.468 361.244 305.136 351.691 305.136C342.138 305.136 334.382 298.468 334.382 290.256C334.382 282.043 342.138 275.375 351.691 275.375Z" fill="#C4C4D8"/>
<path d="M332.998 269.596C343.805 269.596 352.579 277.591 352.579 287.439C352.579 297.286 343.805 305.282 332.998 305.282C322.19 305.282 313.416 297.286 313.416 287.439C313.416 277.591 322.19 269.596 332.998 269.596Z" fill="#C4C4D8"/>
<path d="M314.108 270.474C324.78 270.474 333.445 278.326 333.445 287.998C333.445 297.669 324.78 305.522 314.108 305.522C303.436 305.522 294.771 297.669 294.771 287.998C294.771 278.326 303.436 270.474 314.108 270.474Z" fill="#C4C4D8"/>
<path d="M295.736 278.356C304.929 278.356 312.394 284.644 312.394 292.388C312.394 300.132 304.929 306.42 295.736 306.42C286.542 306.42 279.077 300.132 279.077 292.388C279.077 284.644 286.542 278.356 295.736 278.356Z" fill="#C4C4D8"/>
<path d="M278.735 290.094C286.45 290.094 292.714 294.817 292.714 300.634C292.714 306.452 286.45 311.175 278.735 311.175C271.02 311.175 264.755 306.452 264.755 300.634C264.755 294.817 271.02 290.094 278.735 290.094Z" fill="#C4C4D8"/>
</g>
</g>
</g>
</g>
</g>
<defs>
<clipPath id="clip0_16_21262">
<rect width="489" height="490" fill="white" transform="translate(-64.9995)"/>
</clipPath>
</defs>
</svg>
