<svg width="23" height="23" viewBox="0 0 23 23" fill="none" xmlns="http://www.w3.org/2000/svg">
    <g opacity="0.13">
        <path
            d="M11.6829 22.1358C17.6425 22.1358 22.4736 17.2415 22.4736 11.2041C22.4736 5.16673 17.6425 0.272461 11.6829 0.272461C5.72338 0.272461 0.892212 5.16673 0.892212 11.2041C0.892212 17.2415 5.72338 22.1358 11.6829 22.1358Z"
            fill="#707070" />
        <path
            d="M11.683 21.8978C17.5129 21.8978 22.2391 17.1099 22.2391 11.2038C22.2391 5.29764 17.5129 0.509766 11.683 0.509766C5.85297 0.509766 1.12683 5.29764 1.12683 11.2038C1.12683 17.1099 5.85297 21.8978 11.683 21.8978Z"
            stroke="#707070" stroke-width="0.475289" />
    </g>
    <path opacity="0.49"
        d="M9.0719 6.65041L9.74842 6.00781L15.3465 11.3054L9.74842 16.603L9.0719 15.9642L13.9906 11.3063L9.0719 6.65041Z"
        fill="black" />
</svg>
    