<svg viewBox="0 0 414 857" fill="none" xmlns="http://www.w3.org/2000/svg">
    <g clip-path="url(#clip0_16_21238)">
        <!--  -->
        <path
            d="M169.919 778C169.919 803.405 149.325 824 123.919 824C98.5143 824 77.9194 803.405 77.9194 778C77.9194 752.595 98.5143 732 123.919 732C149.325 732 169.919 752.595 169.919 778ZM80.7208 778C80.7208 801.858 100.061 821.198 123.919 821.198C147.777 821.198 167.118 801.858 167.118 778C167.118 754.142 147.777 734.801 123.919 734.801C100.061 734.801 80.7208 754.142 80.7208 778Z"
            fill="#FF8EA0" />
        <path
            d="M85.833 754.794C85.1724 754.391 84.3085 754.599 83.9263 755.272C80.6764 760.991 78.6879 767.345 78.1018 773.907C77.4741 780.935 78.4715 788.013 81.0168 794.594C83.5622 801.175 87.5873 807.082 92.7807 811.858C97.9742 816.634 104.197 820.152 110.967 822.139C117.737 824.125 124.874 824.528 131.825 823.315C138.776 822.103 145.355 819.307 151.052 815.146C156.75 810.984 161.414 805.567 164.683 799.314C167.736 793.476 169.497 787.054 169.852 780.486C169.894 779.714 169.28 779.072 168.506 779.054C167.733 779.035 167.093 779.648 167.05 780.42C166.706 786.559 165.054 792.558 162.201 798.016C159.13 803.888 154.751 808.975 149.4 812.883C144.049 816.792 137.871 819.417 131.344 820.556C124.816 821.694 118.114 821.316 111.756 819.451C105.398 817.585 99.5542 814.282 94.6771 809.796C89.7999 805.311 86.0199 799.763 83.6296 793.584C81.2392 787.404 80.3026 780.757 80.8921 774.157C81.44 768.022 83.2927 762.082 86.3198 756.73C86.7007 756.057 86.4936 755.196 85.833 754.794Z"
            fill="#ED2241" />

        <circle cx="123.919" cy="778" r="34" fill="#ED2241" />

        <path d="M117.503 778L130.336 778" stroke="white" stroke-width="2" stroke-linecap="round"
            stroke-linejoin="round" />
        <path d="M123.919 771.583L130.336 778L123.919 784.417" stroke="white" stroke-width="2"
            stroke-linecap="round" stroke-linejoin="round" />
        <!--  -->
    </g>
</svg>