<svg width="129" height="128" viewBox="0 0 129 128" fill="none" xmlns="http://www.w3.org/2000/svg">
    <path
        d="M110.253 63.9999C110.253 89.405 89.6578 110 64.2527 110C38.8476 110 18.2527 89.405 18.2527 63.9999C18.2527 38.5948 38.8476 17.9999 64.2527 17.9999C89.6578 17.9999 110.253 38.5948 110.253 63.9999ZM21.0541 63.9999C21.0541 87.8578 40.3948 107.198 64.2527 107.198C88.1107 107.198 107.451 87.8578 107.451 63.9999C107.451 40.1419 88.1107 20.8013 64.2527 20.8013C40.3948 20.8013 21.0541 40.1419 21.0541 63.9999Z"
        fill="#FF8EA0" />
    <path
        d="M38.3422 25.9913C59.3336 11.6813 87.9512 17.0977 102.261 38.0892C116.571 59.0807 111.155 87.6982 90.1633 102.008C69.1718 116.318 40.5543 110.902 26.2443 89.9104C11.9343 68.9189 17.3507 40.3014 38.3422 25.9913ZM88.5853 99.6935C108.298 86.255 113.385 59.3803 99.9465 39.6672C86.5079 19.9541 59.6332 14.8675 39.9201 28.3061C20.207 41.7446 15.1205 68.6193 28.559 88.3324C41.9975 108.046 68.8722 113.132 88.5853 99.6935Z"
        fill="#ED2241" />
    <circle cx="64.2527" cy="63.9999" r="34" fill="#ED2241" />
    <path d="M57.8361 63.9999L70.6694 63.9999" stroke="white" stroke-width="2"
        stroke-linecap="round" stroke-linejoin="round" />
    <path d="M64.2527 57.5832L70.6694 63.9999L64.2527 70.4166" stroke="white" stroke-width="2"
        stroke-linecap="round" stroke-linejoin="round" />
</svg>
    