<svg width="36" height="35" viewBox="0 0 36 35" fill="none" xmlns="http://www.w3.org/2000/svg">
    <path
        d="M28.424 0H7.33514C3.28399 0 -0.00012207 3.40471 -0.00012207 7.60463V26.6162C-0.00012207 30.8161 3.28399 34.2208 7.33514 34.2208H28.424C32.4752 34.2208 35.7593 30.8161 35.7593 26.6162V7.60463C35.7593 3.40471 32.4752 0 28.424 0Z"
        fill="#F2F5FC" />
    <path
        d="M13.6262 7H11.6262C10.5217 7 9.62622 7.89543 9.62622 9V11M13.6262 25H11.6262C10.5217 25 9.62622 24.1046 9.62622 23V21M23.6262 7H25.6262C26.7308 7 27.6262 7.89543 27.6262 9V11M23.6262 25H25.6262C26.7308 25 27.6262 24.1046 27.6262 23V21"
        stroke="#9D9D9D" stroke-width="2" stroke-linecap="round" />
    <path
        d="M17.0585 19.9951L17.1579 19L17.1575 20.9902L17.0585 19.9951ZM12.6 18.9158L11.6746 18.5368V18.5368L12.6 18.9158ZM17.0418 17.7504L17.752 17.0464L18.4511 17.7518L17.7506 18.4558L17.0418 17.7504ZM16.3202 19.0167L15.3622 18.7298V18.7298L16.3202 19.0167ZM16.9589 19L16.9595 19L17.1575 20.9902C17.0919 20.9967 17.0256 21 16.9589 21V19ZM13.427 19H16.9589V21H13.427V19ZM13.5254 19.2949C13.5359 19.2692 13.5459 19.2219 13.5369 19.1644C13.5284 19.11 13.5064 19.0693 13.4864 19.044C13.4491 18.9971 13.4194 19 13.427 19V21C12.8349 21 12.278 20.7383 11.9203 20.2881C11.549 19.8206 11.4155 19.1694 11.6746 18.5368L13.5254 19.2949ZM15.1929 18C14.2936 18 13.8154 18.5867 13.5254 19.2949L11.6746 18.5368C12.0884 17.5267 13.0867 16 15.1929 16V18ZM16.3316 18.4544C16.0739 18.1945 15.7276 18 15.1929 18V16C16.3114 16 17.1558 16.4449 17.752 17.0464L16.3316 18.4544ZM17.7506 18.4558C17.5226 18.6849 17.372 18.9901 17.2782 19.3035L15.3622 18.7298C15.5151 18.2195 15.7983 17.5824 16.3329 17.0451L17.7506 18.4558ZM17.2782 19.3035C17.2873 19.2732 17.2926 19.2257 17.2814 19.171C17.2706 19.1184 17.2483 19.0778 17.227 19.051C17.2064 19.025 17.1873 19.0124 17.1767 19.0068C17.1658 19.001 17.1592 19.0002 17.1579 19L16.9591 20.9901C16.0045 20.8948 14.9858 19.9871 15.3622 18.7298L17.2782 19.3035Z"
        fill="#9D9D9D" />
    <path
        d="M21.0608 17.7504L20.3519 18.4558L19.6514 17.7518L20.3506 17.0464L21.0608 17.7504ZM25.5025 18.9158L26.4279 18.5368V18.5368L25.5025 18.9158ZM21.0441 19.9951L20.9451 20.9902L20.9447 19L21.0441 19.9951ZM21.7824 19.0167L22.7403 18.7298V18.7298L21.7824 19.0167ZM22.9096 18C22.3749 18 22.0286 18.1945 21.771 18.4544L20.3506 17.0464C20.9468 16.4449 21.7911 16 22.9096 16V18ZM24.5771 19.2949C24.2871 18.5867 23.8089 18 22.9096 18V16C25.0158 16 26.0142 17.5267 26.4279 18.5368L24.5771 19.2949ZM24.6755 19C24.6831 19 24.6534 18.9971 24.6162 19.044C24.5961 19.0693 24.5742 19.11 24.5656 19.1644C24.5566 19.2219 24.5666 19.2692 24.5771 19.2949L26.4279 18.5368C26.687 19.1693 26.5536 19.8205 26.1822 20.288C25.8245 20.7383 25.2676 21 24.6755 21V19ZM21.1437 19H24.6755V21H21.1437V19ZM21.143 19L21.1437 19V21C21.0769 21 21.0107 20.9967 20.9451 20.9902L21.143 19ZM20.9447 19C20.9434 19.0002 20.9368 19.001 20.9258 19.0068C20.9153 19.0124 20.8962 19.025 20.8756 19.051C20.8542 19.0778 20.832 19.1184 20.8212 19.171C20.81 19.2257 20.8153 19.2732 20.8244 19.3035L22.7403 18.7298C23.1168 19.9871 22.098 20.8948 21.1434 20.9901L20.9447 19ZM20.8244 19.3035C20.7305 18.9901 20.58 18.6849 20.3519 18.4558L21.7696 17.045C22.3043 17.5824 22.5875 18.2194 22.7403 18.7298L20.8244 19.3035Z"
        fill="#9D9D9D" />
    <path
        d="M19.0512 17C17.2659 17 16.5821 18.1419 16.3201 19.0167C16.1617 19.5457 16.6052 20 17.1575 20H20.9449C21.4972 20 21.9407 19.5457 21.7823 19.0167C21.5204 18.1419 20.8365 17 19.0512 17Z"
        stroke="#9D9D9D" stroke-width="2" stroke-linecap="round" />
    <circle cx="2" cy="2" r="2" transform="matrix(-1 0 0 1 20.6262 11)" fill="#9D9D9D" />
    <circle cx="2" cy="2" r="2" transform="matrix(-1 0 0 1 16.6262 11)" fill="#9D9D9D" />
    <circle cx="2" cy="2" r="2" transform="matrix(-1 0 0 1 24.6262 11)" fill="#9D9D9D" />
</svg>
    