<svg width="25" height="26" viewBox="0 0 25 26" fill="none" xmlns="http://www.w3.org/2000/svg">
    <path
        d="M12.7713 2.89747C10.7629 2.89917 8.80013 3.50221 7.13104 4.63036C5.46195 5.75852 4.16151 7.36114 3.39409 9.23564C2.62668 11.1101 2.42676 13.1723 2.8196 15.1616C3.21244 17.1508 4.18041 18.9778 5.60114 20.4115C7.02187 21.8452 8.83157 22.8213 10.8015 23.2164C12.7714 23.6115 14.8131 23.4078 16.6684 22.6312C18.5237 21.8546 20.1094 20.5398 21.2251 18.8531C22.3407 17.1665 22.9361 15.1836 22.9361 13.1552C22.9371 11.8071 22.6748 10.4721 22.1642 9.22655C21.6536 7.98102 20.9048 6.84945 19.9606 5.89662C19.0164 4.9438 17.8954 4.18844 16.6617 3.6738C15.4281 3.15916 14.106 2.89535 12.7713 2.89747ZM19.8048 9.05247H16.8081C16.488 7.78261 16.0175 6.55638 15.4066 5.40035C17.2601 6.04297 18.8216 7.33985 19.8039 9.05247H19.8048ZM12.776 4.98875C13.6332 6.23148 14.288 7.60466 14.7158 9.05627H10.8362C11.264 7.60466 11.9189 6.23148 12.776 4.98875ZM4.91521 15.2065C4.56319 13.8621 4.56319 12.4483 4.91521 11.1038H8.34301C8.25596 11.7841 8.21008 12.4692 8.2056 13.1552C8.20909 13.8413 8.25656 14.5265 8.34772 15.2065H4.91521ZM5.74251 17.2579H8.73737C9.05831 18.529 9.5288 19.7567 10.1388 20.9147C8.28458 20.2704 6.72287 18.9719 5.74063 17.2579H5.74251ZM8.73737 9.05247H5.74251C6.72475 7.33839 8.28646 6.03989 10.1407 5.39559C9.53003 6.55359 9.05891 7.7813 8.73737 9.05247ZM12.7741 21.3254C11.9209 20.0803 11.2664 18.7078 10.8343 17.2579H14.7139C14.2824 18.7077 13.6285 20.0802 12.776 21.3254H12.7741ZM15.1506 15.2065H10.3976C10.2945 14.5276 10.2401 13.842 10.2348 13.1552C10.2401 12.4683 10.2945 11.7827 10.3976 11.1038H15.1506C15.2538 11.7827 15.3082 12.4683 15.3134 13.1552C15.3088 13.842 15.255 14.5275 15.1525 15.2065H15.1506ZM15.4095 20.91C16.0195 19.7536 16.49 18.5274 16.8109 17.2579H19.8067C18.8217 18.9685 17.2608 20.2647 15.4085 20.91H15.4095ZM17.1977 15.2065C17.2863 14.5263 17.3338 13.8412 17.3398 13.1552C17.3363 12.469 17.2889 11.7838 17.1977 11.1038H20.6255C20.8005 11.7734 20.891 12.4627 20.8947 13.1552C20.8934 13.8478 20.803 14.5374 20.6255 15.2065H17.1977Z"
        fill="#9D9D9D" />
</svg>
    